<svg width="221" height="109" xmlns="http://www.w3.org/2000/svg"><defs><radialGradient cx="100%" cy="102%" fx="100%" fy="102%" r="330%" gradientTransform="matrix(1 0 0 .71875 0 .3)" id="a"><stop stop-color="#BF360C" stop-opacity=".2" offset="0%"/><stop stop-color="#BF360C" stop-opacity="0" offset="100%"/></radialGradient><radialGradient cx="160%" cy="160.9%" fx="160%" fy="160.9%" r="260%" gradientTransform="matrix(1 0 0 .6923 0 .5)" id="b"><stop stop-color="#263238" stop-opacity=".2" offset="0%"/><stop stop-color="#263238" stop-opacity="0" offset="100%"/></radialGradient><radialGradient cx="0%" cy="0%" fx="0%" fy="0%" r="170%" gradientTransform="scale(1 .62467)" id="c"><stop stop-color="#FFF" stop-opacity=".1" offset="0%"/><stop stop-color="#FFF" stop-opacity="0" offset="100%"/></radialGradient></defs><g fill="none" fill-rule="evenodd"><path d="M66.3 49L38 0H0l31.3 54.1L0 108.3h38l28.3-49c1.8-3.2 1.8-7 0-10.2V49z"/><path fill="#FFC107" fill-rule="nonzero" d="M50 86.5L41 71l-21.5 37.3H38L50.3 87z"/><path d="M66.3 49L38 0H0l31.3 54.1L0 108.3h38l28.3-49c1.8-3.2 1.8-7 0-10.2V49z"/><path fill="#0F9D58" fill-rule="nonzero" d="M31.3 54.1L41 71l-21.5 37.3H0z"/><path d="M66.3 49L38 0H0l31.3 54.1L0 108.3h38l28.3-49c1.8-3.2 1.8-7 0-10.2V49z"/><path fill="#BF360C" fill-rule="nonzero" opacity=".2" d="M38 107.5H20l-.5.8H38L50.3 87l-.3-.5z"/><path d="M66.3 49L38 0H0l31.3 54.1L0 108.3h38l28.3-49c1.8-3.2 1.8-7 0-10.2V49z"/><path fill="#263238" fill-rule="nonzero" opacity=".2" d="M.5 107.5l-.5.8h19.5l.4-.8z"/><path d="M66.3 49L38 0H0l31.3 54.1L0 108.3h38l28.3-49c1.8-3.2 1.8-7 0-10.2V49z"/><path fill="#FFF" fill-rule="nonzero" opacity=".2" d="M0 108.3h.5l31-53.7-.2-.5z"/><path d="M66.3 49L38 0H0l31.3 54.1L0 108.3h38l28.3-49c1.8-3.2 1.8-7 0-10.2V49z"/><path fill="url(#a)" fill-rule="nonzero" d="M50.3 87L41 71l-2.2 3.9z"/><path d="M66.3 49L38 0H0l31.3 54.1L0 108.3h38l28.3-49c1.8-3.2 1.8-7 0-10.2V49z"/><path fill="url(#b)" fill-rule="nonzero" d="M38.8 74.9l2.3-4-9.8-16.8-4.6 8z"/><path d="M66.3 49L38 0H0l31.3 54.1L0 108.3h38l28.3-49c1.8-3.2 1.8-7 0-10.2V49z"/><path fill="#4285F4" fill-rule="nonzero" d="M19.5 0H0l50.3 87L60 70z"/><path d="M66.3 49L38 0H0l31.3 54.1L0 108.3h38l28.3-49c1.8-3.2 1.8-7 0-10.2V49z"/><path d="M66.3 59.2c1.8-3.1 1.8-7 0-10.1L38 0H19.5L60 70.1l6.3-10.9z" fill="#DB4437" fill-rule="nonzero"/><path d="M66.3 49L38 0H0l31.3 54.1L0 108.3h38l28.3-49c1.8-3.2 1.8-7 0-10.2V49z"/><path fill="#1A237E" fill-rule="nonzero" opacity=".2" d="M60 70.1l-.2-.4-9.5 16.4L.5 0H0l50.3 87L60 70z"/><path d="M66.3 49L38 0H0l31.3 54.1L0 108.3h38l28.3-49c1.8-3.2 1.8-7 0-10.2V49z"/><path d="M38 .8L66.2 50c.8 1.4 1.3 3 1.3 4.7 0-2-.4-3.8-1.3-5.5L37.9 0H0l.5.8H38z" fill="#FFF" fill-rule="nonzero" opacity=".2"/><path d="M66.3 49L38 0H0l31.3 54.1L0 108.3h38l28.3-49c1.8-3.2 1.8-7 0-10.2V49z"/><path d="M60 70.1l6.3-10.9c1-1.7 1.4-3.6 1.3-5.5 0 1.7-.5 3.3-1.3 4.7l-6.6 11.3.3.4z" fill="#3E2723" fill-rule="nonzero" opacity=".2"/><path d="M66.3 49L38 0H0l31.3 54.1L0 108.3h38l28.3-49c1.8-3.2 1.8-7 0-10.2V49z"/><path d="M66.3 49L38 0H0l31.3 54.1L0 108.3h38l28.3-49c1.8-3.2 1.8-7 0-10.2V49z" fill="url(#c)" fill-rule="nonzero"/><path d="M124.2 101.4V61.8h14.3c3 0 5.8 1 8 3.1 2.2 2 3.5 4.8 3.4 7.7.2 3.6-2 6.9-5.3 8.2v.3a9.6 9.6 0 0 1 6.7 9c0 3.1-1.3 6-3.6 8.1a12 12 0 0 1-8.4 3.2h-15.1zm5-34.7v12h9.3a6.2 6.2 0 0 0 6.4-6 6 6 0 0 0-1.8-4.2 5.8 5.8 0 0 0-4.4-1.8h-9.5zm0 16.8v13h10.3c1.8 0 3.5-.6 4.7-1.9 1.2-1.2 2-2.9 1.9-4.6 0-1.7-.7-3.3-2-4.5-1.3-1.3-3-2-4.8-2h-10.1zm30.7 9.6a4 4 0 0 0 1.6 3.3c1.1.9 2.6 1.3 4 1.3 2.1 0 4.2-.8 5.7-2.3a7.4 7.4 0 0 0 2.5-5.6c-2-1.4-4.2-2-6.6-1.9-1.8 0-3.7.5-5.2 1.5-1.3.8-2 2.2-2 3.7zm6.5-19.7c3.8 0 6.8 1 9 3 2.2 2.2 3.4 5.2 3.2 8.3v16.7h-4.9v-3.8h-.2c-1.8 3-5 4.7-8.4 4.7a11 11 0 0 1-7.5-2.7c-2-1.6-3-4-3-6.6a8 8 0 0 1 3.2-6.7c2.5-1.8 5.5-2.7 8.5-2.5 2.6 0 5.1.5 7.4 1.7v-1.2c0-1.7-.7-3.4-2-4.5a7.2 7.2 0 0 0-5-1.8 7.8 7.8 0 0 0-6.7 3.5l-4.5-2.8c2.5-3.5 6.1-5.3 11-5.3h-.1zm23-11.6v39.6h-5V61.8h5zm12.8 3.2c0 1-.3 1.8-1 2.5s-1.6 1-2.6 1-1.8-.3-2.5-1-1-1.6-1-2.5c0-1 .3-2 1-2.6.7-.7 1.6-1 2.5-1 1 0 2 .3 2.6 1 .7.7 1 1.6 1 2.6zm-1 9.3v27.1H196V74.3h5.2zm-68.3-41.6c0 5.9-1.8 10.5-5.3 14a20 20 0 0 1-15.4 6.2 21 21 0 0 1-15.5-6.3A21.2 21.2 0 0 1 90.4 31a21.2 21.2 0 0 1 6.3-15.6A21 21 0 0 1 112.2 9c3 0 6 .6 8.8 1.7 2.6 1 4.9 2.6 6.7 4.6l-3.9 3.9a13 13 0 0 0-5-3.7c-2-.9-4.3-1.3-6.6-1.3-4.4 0-8.6 1.7-11.6 4.8a16.5 16.5 0 0 0-4.7 12c-.1 4.5 1.6 8.8 4.7 12 3 3.1 7.2 4.9 11.6 4.8 3.8.2 7.5-1 10.5-3.5a14 14 0 0 0 4.8-9.7h-15.3v-5h20.4l.3 3v.1zm6.5 19.3V10h12.9c6.4 0 11.6 2 15.5 5.8 4 3.9 5.9 9 5.8 15.2 0 6.3-2 11.3-5.8 15.2a21 21 0 0 1-15.5 5.8h-12.9zm5.4-36.9v31.7h7.5c4.9 0 8.7-1.4 11.6-4.2 2.9-2.8 4.2-6.7 4.1-11.6 0-5-1.4-8.8-4.2-11.6a16.2 16.2 0 0 0-11.5-4.4l-7.5.1zm75.7 17.6c0 5.9-1.8 10.5-5.3 14a20 20 0 0 1-15.4 6.2 21 21 0 0 1-15.5-6.3c-4.2-4-6.5-9.7-6.4-15.6a21.2 21.2 0 0 1 6.4-15.6A21 21 0 0 1 199.8 9c3 0 6 .6 8.7 1.7 2.6 1 5 2.5 6.8 4.6l-3.9 3.9a13 13 0 0 0-5-3.7c-2-.9-4.3-1.3-6.6-1.3-4.4 0-8.6 1.7-11.6 4.8a16.5 16.5 0 0 0-4.7 12c-.1 4.5 1.6 8.8 4.7 12 3 3.1 7.2 4.9 11.6 4.8 3.8.1 7.5-1.1 10.4-3.5a14 14 0 0 0 4.9-9.7h-15.3v-5h20.4l.3 3v.1z" fill="#FFF" fill-rule="nonzero"/></g></svg>