<svg xmlns="http://www.w3.org/2000/svg" viewBox="0 0 220.5 108.3"><defs><style>.a{fill:none;fill-rule:evenodd}.f{opacity:.2;fill:#fff}</style><radialGradient id="a" cx="1" cy="1" r="3.3" gradientTransform="matrix(1 0 0 .72 0 .3)"><stop offset="0" stop-color="#bf360c" stop-opacity=".2"/><stop offset="1" stop-color="#bf360c" stop-opacity="0"/></radialGradient><radialGradient id="b" cx="1.6" cy="1.6" r="2.6" gradientTransform="matrix(1 0 0 .693 0 .5)"><stop offset="0" stop-color="#263238" stop-opacity=".2"/><stop offset="1" stop-color="#263238" stop-opacity="0"/></radialGradient><radialGradient id="c" cx="0" cy="0" r="1.7" gradientTransform="scale(1 .625)"><stop offset="0" stop-color="#fff" stop-opacity=".1"/><stop offset="1" stop-color="#fff" stop-opacity="0"/></radialGradient></defs><path class="a" d="M66.3 49L38 0H0l31.3 54.1L0 108.3h38l28.3-49a10.3 10.3 0 0 0 0-10.2z"/><path d="M50 86.5L41 71l-21.5 37.3H38L50.3 87z" fill="#ffc107"/><path class="a" d="M66.3 49L38 0H0l31.3 54.1L0 108.3h38l28.3-49a10.3 10.3 0 0 0 0-10.2z"/><path d="M31.3 54.1L41 71l-21.5 37.3H0z" fill="#0f9d58"/><path class="a" d="M66.3 49L38 0H0l31.3 54.1L0 108.3h38l28.3-49a10.3 10.3 0 0 0 0-10.2z"/><path d="M38 107.5H20l-.5.8H38L50.3 87l-.3-.5z" opacity=".2" fill="#bf360c"/><path class="a" d="M66.3 49L38 0H0l31.3 54.1L0 108.3h38l28.3-49a10.3 10.3 0 0 0 0-10.2z"/><path d="M.5 107.5l-.5.8h19.5l.4-.8z" fill="#263238" opacity=".2"/><path class="a" d="M66.3 49L38 0H0l31.3 54.1L0 108.3h38l28.3-49a10.3 10.3 0 0 0 0-10.2z"/><path class="f" d="M0 108.3h.5l31-53.7-.2-.5z"/><path class="a" d="M66.3 49L38 0H0l31.3 54.1L0 108.3h38l28.3-49a10.3 10.3 0 0 0 0-10.2z"/><path d="M50.3 87L41 71l-2.2 3.9z" fill="url(#a)"/><path class="a" d="M66.3 49L38 0H0l31.3 54.1L0 108.3h38l28.3-49a10.3 10.3 0 0 0 0-10.2z"/><path d="M38.8 74.9l2.3-4-9.8-16.8-4.6 8z" fill="url(#b)"/><path class="a" d="M66.3 49L38 0H0l31.3 54.1L0 108.3h38l28.3-49a10.3 10.3 0 0 0 0-10.2z"/><path d="M19.5 0H0l50.3 87L60 70z" fill="#4285f4"/><path class="a" d="M66.3 49L38 0H0l31.3 54.1L0 108.3h38l28.3-49a10.3 10.3 0 0 0 0-10.2z"/><path d="M66.3 59.2a10.1 10.1 0 0 0 0-10.1L38 0H19.5L60 70.1l6.3-10.9z" fill="#db4437"/><path class="a" d="M66.3 49L38 0H0l31.3 54.1L0 108.3h38l28.3-49a10.3 10.3 0 0 0 0-10.2z"/><path d="M60 70.1l-.2-.4-9.5 16.4L.5 0H0l50.3 87L60 70z" fill="#1a237e" opacity=".2"/><path class="a" d="M66.3 49L38 0H0l31.3 54.1L0 108.3h38l28.3-49a10.3 10.3 0 0 0 0-10.2z"/><path class="f" d="M38 .8L66.2 50a9.5 9.5 0 0 1 1.3 4.7 10.2 10.2 0 0 0-1.3-5.5L37.9 0H0l.5.8h37.4z"/><path class="a" d="M66.3 49L38 0H0l31.3 54.1L0 108.3h38l28.3-49a10.3 10.3 0 0 0 0-10.2z"/><path d="M60 70.1l6.3-10.9a9.6 9.6 0 0 0 1.3-5.5 9.5 9.5 0 0 1-1.3 4.7l-6.6 11.3.3.4z" fill="#3e2723" opacity=".2"/><path class="a" d="M66.3 49L38 0H0l31.3 54.1L0 108.3h38l28.3-49a10.3 10.3 0 0 0 0-10.2z"/><path d="M66.3 49L38 0H0l31.3 54.1L0 108.3h38l28.3-49a10.3 10.3 0 0 0 0-10.2z" fill="url(#c)"/><path d="M124.2 101.4V61.8h14.3a11.5 11.5 0 0 1 8 3.1 9.9 9.9 0 0 1 3.4 7.7 8.4 8.4 0 0 1-5.3 8.2v.3a9.6 9.6 0 0 1 4.8 3.4 9.2 9.2 0 0 1 1.9 5.6 10.4 10.4 0 0 1-3.6 8.1 12 12 0 0 1-8.4 3.2zm5-34.7v12h9.3A6.2 6.2 0 0 0 143 77a6 6 0 0 0 1.9-4.3 6 6 0 0 0-1.8-4.2 5.8 5.8 0 0 0-4.4-1.8zm0 16.8v13h10.3a6.4 6.4 0 0 0 4.7-1.9 6.4 6.4 0 0 0 1.9-4.6 6.2 6.2 0 0 0-2-4.5 6.6 6.6 0 0 0-4.8-2zm30.7 9.6a4 4 0 0 0 1.6 3.3 6.2 6.2 0 0 0 4 1.3 8.1 8.1 0 0 0 5.7-2.3 7.4 7.4 0 0 0 2.5-5.6 10.4 10.4 0 0 0-6.6-1.9 8.6 8.6 0 0 0-5.2 1.5 4.4 4.4 0 0 0-2 3.7zm6.5-19.7q5.7 0 9 3a10.7 10.7 0 0 1 3.2 8.3v16.7h-4.9v-3.8h-.2a9.7 9.7 0 0 1-8.4 4.7 11 11 0 0 1-7.5-2.7 8.5 8.5 0 0 1-3-6.6 8 8 0 0 1 3.2-6.7 13.4 13.4 0 0 1 8.5-2.5 15 15 0 0 1 7.4 1.7v-1.2a5.8 5.8 0 0 0-2-4.5 7.2 7.2 0 0 0-5-1.8 7.8 7.8 0 0 0-6.7 3.5l-4.5-2.8q3.7-5.3 11-5.3zm23-11.6v39.6h-5V61.8zm12.8 3.2a3.5 3.5 0 0 1-1 2.5 3.5 3.5 0 0 1-2.6 1 3.5 3.5 0 0 1-2.5-1 3.5 3.5 0 0 1-1-2.5 3.5 3.5 0 0 1 1-2.6 3.5 3.5 0 0 1 2.5-1 3.5 3.5 0 0 1 2.6 1 3.5 3.5 0 0 1 1 2.6zm-1 9.3v27.1H196V74.3zm-68.3-41.6q0 8.8-5.3 14-5.8 6.2-15.4 6.2a21 21 0 0 1-15.5-6.3A21.2 21.2 0 0 1 90.4 31a21.2 21.2 0 0 1 6.3-15.6A21 21 0 0 1 112.2 9a23.3 23.3 0 0 1 8.8 1.7 17.5 17.5 0 0 1 6.7 4.6l-3.9 3.9a13 13 0 0 0-5-3.7 16.6 16.6 0 0 0-6.6-1.3 15.8 15.8 0 0 0-11.6 4.8 16.5 16.5 0 0 0-4.7 12 16.5 16.5 0 0 0 4.7 12 15.8 15.8 0 0 0 11.6 4.8 15.6 15.6 0 0 0 10.5-3.5 14 14 0 0 0 4.8-9.7h-15.3v-5h20.4a18 18 0 0 1 .3 3zm6.5 19.3V10h12.9q9.6 0 15.5 5.8t5.8 15.2q0 9.4-5.8 15.2T152.3 52zm5.4-36.9v31.7h7.5q7.3 0 11.6-4.2T168 31q0-7.4-4.2-11.6T152.3 15zm75.7 17.6q0 8.8-5.3 14-5.8 6.2-15.4 6.2a21 21 0 0 1-15.5-6.3 21.2 21.2 0 0 1-6.4-15.6 21.2 21.2 0 0 1 6.4-15.6A21 21 0 0 1 199.8 9a23.3 23.3 0 0 1 8.7 1.7 17.5 17.5 0 0 1 6.8 4.6l-3.9 3.9a13 13 0 0 0-5-3.7 16.6 16.6 0 0 0-6.6-1.3 15.8 15.8 0 0 0-11.6 4.8 16.5 16.5 0 0 0-4.7 12 16.5 16.5 0 0 0 4.7 12 15.8 15.8 0 0 0 11.6 4.8 15.6 15.6 0 0 0 10.4-3.5 14 14 0 0 0 4.9-9.7h-15.3v-5h20.4a18 18 0 0 1 .3 3z"/></svg>