<svg width="118" height="92" xmlns="http://www.w3.org/2000/svg"><defs><radialGradient cx="40.7%" cy="-5.2%" fx="40.7%" fy="-5.2%" r="153.1%" gradientTransform="scale(1 .7283)" id="a"><stop stop-color="#0DA960" offset="0%"/><stop stop-color="#03914B" offset="100%"/></radialGradient><radialGradient cx="62.7%" cy="6.1%" fx="62.7%" fy="6.1%" r="155.8%" gradientTransform="scale(1 .7792)" id="b"><stop stop-color="#FFCD4D" offset="0%"/><stop stop-color="#F6C338" offset="100%"/></radialGradient><linearGradient x1="122.5%" y1="50%" x2="-2.7%" y2="50%" id="c"><stop stop-color="#231F20" stop-opacity=".2" offset="0%"/><stop stop-color="#F1F2F2" stop-opacity=".3" offset="100%"/></linearGradient><radialGradient cx="60.7%" cy="112%" fx="60.7%" fy="112%" r="153.1%" gradientTransform="matrix(-1 0 0 -.72669 1.2 2)" id="d"><stop stop-color="#4387FD" offset="0%"/><stop stop-color="#4683EA" offset="100%"/></radialGradient><radialGradient cx="32.7%" cy="87.8%" fx="32.7%" fy="87.8%" r="155.8%" gradientTransform="matrix(-1 0 0 -.7814 .7 1.6)" id="e"><stop stop-color="#E04A3F" offset="0%"/><stop stop-color="#CD372D" offset="100%"/></radialGradient><linearGradient x1="-22.5%" y1="50%" x2="102.7%" y2="50%" id="f"><stop stop-color="#231F20" stop-opacity=".2" offset="0%"/><stop stop-color="#F1F2F2" stop-opacity=".3" offset="100%"/></linearGradient></defs><g fill="none"><path d="M101.7 66.3c1.1 2 1.2 5 .1 7.2l14.3-23.7a8.2 8.2 0 0 0 0-7.7L93 3.8A8.9 8.9 0 0 0 86.3 0h-20c-2.5 0-3.5 1.7-2.2 3.8l14.3 23.9.3.3 23 38.3z" fill="url(#a)"/><path d="M66.2 92h20c2.5 0 5.6-1.8 6.9-3.9l8.7-14.6c1-2.1 1-5.2-.1-7.2L87 42.1a8.3 8.3 0 0 1 0 7.7L72.8 73.5c0 .2 0 .3-.2.5L64 88.5c-.9 2 0 3.5 2.3 3.5h-.1z" fill="url(#b)"/><path d="M101.7 66.3L87 42.1a8.3 8.3 0 0 1 0 7.7l-5.2 8.6 20 15.1c1-2.1 1-5.2-.2-7.2h.1z" fill="url(#c)"/><path d="M15.4 25.7a8.1 8.1 0 0 1-.2-7.3L1 42.1a8.2 8.2 0 0 0 0 7.7l23 38.3c1.5 2.3 4 3.7 6.7 3.9h20c2.6 0 3.5-1.8 2.3-3.9L38.6 64.3l-.2-.3-23-38.3z" fill="url(#d)"/><path d="M50.8 0h-20A8.8 8.8 0 0 0 24 3.8l-8.8 14.6c-1 2.2-1 5.3.2 7.3L30 49.8a8.2 8.2 0 0 1 0-7.7l14.2-23.6c0-.2 0-.4.2-.5L53 3.4C54 1.5 53 0 50.7 0h.1z" fill="url(#e)"/><path d="M15.4 25.7L30 49.8a8.2 8.2 0 0 1 0-7.7l5.1-8.5-20-15.2c-1 2.2-1 5.3.3 7.3z" fill="url(#f)"/><path d="M64.4 30.4L63 30l-.5.1-.4.5-9 31 .1.6.5.4 1.5.4.5-.1.4-.5 9-31-.1-.6a.8.8 0 0 0-.5-.4h-.1zM51 36c0-.2 0-.4-.2-.6l-1.2-1.2a.8.8 0 0 0-.6-.2c-.2 0-.4 0-.6.2L37.2 45.4a.8.8 0 0 0 0 1.2l11.2 11.2a.8.8 0 0 0 1.2 0l1.2-1.2c.3-.3.3-.8 0-1.1L41.3 46l9.5-9.5.2-.5zm29.8 9.4L69.5 34.2a.8.8 0 0 0-.5-.2c-.2 0-.4 0-.6.2l-1.2 1.2c-.3.3-.3.8 0 1.1l9.5 9.5-9.5 9.5c-.2.3-.2.7 0 1l1.2 1.3c.3.3.8.3 1.1 0l11.3-11.2a.8.8 0 0 0 0-1.2z" fill="#757575"/></g></svg>