<svg width="118" height="92" xmlns="http://www.w3.org/2000/svg"><defs><radialGradient cx="40.7%" cy="-5.2%" fx="40.7%" fy="-5.2%" r="153.1%" gradientTransform="matrix(1 0 0 .7283 0 0)" id="a"><stop stop-color="#0DA960" offset="0%"/><stop stop-color="#03914B" offset="100%"/></radialGradient><radialGradient cx="62.7%" cy="6.1%" fx="62.7%" fy="6.1%" r="155.8%" gradientTransform="matrix(1 0 0 .7792 0 0)" id="b"><stop stop-color="#FFCD4D" offset="0%"/><stop stop-color="#F6C338" offset="100%"/></radialGradient><linearGradient x1="122.5%" y1="50%" x2="-2.7%" y2="50%" id="c"><stop stop-color="#231F20" stop-opacity=".2" offset="0%"/><stop stop-color="#F1F2F2" stop-opacity=".3" offset="100%"/></linearGradient><radialGradient cx="60.7%" cy="112%" fx="60.7%" fy="112%" r="153.1%" gradientTransform="matrix(-1 0 0 -.72669 1.2 2)" id="d"><stop stop-color="#4387FD" offset="0%"/><stop stop-color="#4683EA" offset="100%"/></radialGradient><radialGradient cx="32.7%" cy="87.8%" fx="32.7%" fy="87.8%" r="155.8%" gradientTransform="matrix(-1 0 0 -.7814 .7 1.6)" id="e"><stop stop-color="#E04A3F" offset="0%"/><stop stop-color="#CD372D" offset="100%"/></radialGradient><linearGradient x1="-22.5%" y1="50%" x2="102.7%" y2="50%" id="f"><stop stop-color="#231F20" stop-opacity=".2" offset="0%"/><stop stop-color="#F1F2F2" stop-opacity=".3" offset="100%"/></linearGradient></defs><g fill-rule="nonzero" fill="none"><path d="M69.2 48.8L65 43.4a9 9 0 0 0 2.5-5.7H74v.7a3.2 3.2 0 1 0 1.3 0v-1.3c0-.4-.3-.7-.6-.7h-7.2a9 9 0 0 0-1.9-4.9l1-.9h7.6a2 2 0 1 0 0-1.3h-8c-.1 0-.3 0-.4.2l-1 1a9 9 0 0 0-15.4 6H44l-2.2-4.8a2 2 0 1 0-1.3.1l2.5 5.5c0 .3.3.4.5.4h6a9 9 0 0 0 2.4 5.7l-5.5 5.4a6.5 6.5 0 1 0-1.6 12.9V65c0 .3.3.6.7.6h6a2 2 0 1 0 0-1.3H46v-2.6a6.5 6.5 0 0 0 2-12.5l5-5a9 9 0 0 0 11 0l3.7 4.7a9 9 0 1 0 1.6-.1h-.1zm7.4-7.2a2 2 0 1 1-3.9 0 2 2 0 1 1 4 0h-.1zM76 29.3a.6.6 0 1 1 0 1.3.6.6 0 0 1 0-1.3zm-35 1.3a.6.6 0 1 1 0-1.3.6.6 0 0 1 0 1.3zm12.3 33.7a.6.6 0 1 1 0 1.3.6.6 0 0 1 0-1.3zM48 59.7c-1.6 1-3.6 1-5.2 0v-1.2a2.6 2.6 0 0 1 5.2 0v1.2zm-3.9-6.4a1.3 1.3 0 1 1 2.6 0 1.3 1.3 0 0 1-2.6 0zm5.2-1.5c1.7 2 1.7 5 0 6.9v-.2a4 4 0 0 0-2-3.4 2.6 2.6 0 1 0-3.8 0 4 4 0 0 0-2 3.4v.2a5.2 5.2 0 0 1 7.8-6.9zM63 43.4c-2.7 2-6.4 2-9 0v-1.6a2 2 0 0 1 2-2.1h1.5l-1 2.3c0 .3 0 .5.2.7L58 44c.3.3.7.3 1 0l1.2-1.3c.2-.2.3-.4.2-.7l-1-2.3H61c1.1 0 2.1 1 2.1 2.1v1.6H63zm-4.4-10.5h-.1c-.3 1-2.1 1.4-3.2 1.5.1-2.1 1.2-3.2 3.2-3.2 1.8 0 2.8 1 3.1 2.7l-2.2-1.3a.6.6 0 0 0-.8.3zm.8 1.2l2.3 1.4c-.3 1.6-2.2 2.9-3.2 2.9a4 4 0 0 1-3.2-2.6c1.1-.1 3.1-.5 4-1.7h.1zm-.4 8l-.5.6-.6-.6.6-1.3.5 1.3zm2.3-3.7c1-.8 1.6-2 1.7-3.3 0-4.3-2.5-5.2-4.5-5.2-2.1 0-4.6 1-4.6 5.2.1 1.3.7 2.5 1.7 3.3-1.7.2-3 1.7-3 3.4v.4a7.8 7.8 0 1 1 11.7 0v-.4c0-1.7-1.3-3.2-3-3.4zm12 25.7c-2.6 2-6.3 2-9 0v-1.5c0-1.2 1-2.2 2.1-2.2H68l-1 2.4c0 .2 0 .5.2.7l1.3 1.3c.2.2.6.2.9 0l1.3-1.3c.2-.2.2-.5.1-.7l-.9-2.4h1.4c1.2 0 2.2 1 2.2 2.2V64l-.2.1zM69.8 55l2.4 1.3c-.3 1.6-2.3 3-3.3 3a4 4 0 0 1-3.1-2.7c1.1 0 3.1-.4 4-1.6zm-4 .3c.1-2.2 1.1-3.2 3.1-3.2 1.9 0 2.9.9 3.2 2.7l-2.2-1.3a.6.6 0 0 0-1 .3c-.2 1-2 1.4-3.2 1.5h.1zm3.7 7.7l-.6.5-.5-.5.5-1.4.6 1.4zm5.3 0v-.3c0-1.8-1.3-3.2-3-3.4 1-.8 1.6-2 1.7-3.3 0-4.3-2.5-5.2-4.6-5.2-2 0-4.5.9-4.5 5.2 0 1.3.7 2.5 1.7 3.3-1.7.2-3 1.6-3 3.4v.4a7.8 7.8 0 1 1 11.7 0V63z" fill="#EAEAEA"/><path d="M101.7 66.3c1.1 2 1.2 5 .1 7.2l14.3-23.7a8.2 8.2 0 0 0 0-7.7L93 3.8A8.9 8.9 0 0 0 86.3 0h-20c-2.5 0-3.5 1.7-2.2 3.8l14.3 23.9.3.3 23 38.3z" fill="url(#a)"/><path d="M66.2 92h20c2.5 0 5.6-1.8 6.9-3.9l8.7-14.6c1-2.1 1-5.2-.1-7.2L87 42.1a8.3 8.3 0 0 1 0 7.7L72.8 73.5c0 .2 0 .3-.2.5L64 88.5c-.9 2 0 3.5 2.3 3.5h-.1z" fill="url(#b)"/><path d="M101.7 66.3L87 42.1a8.3 8.3 0 0 1 0 7.7l-5.2 8.6 20 15.1c1-2.1 1-5.2-.2-7.2h.1z" fill="url(#c)"/><path d="M15.4 25.7a8.1 8.1 0 0 1-.2-7.3L1 42.1a8.2 8.2 0 0 0 0 7.7l23 38.3c1.5 2.3 4 3.7 6.7 3.9h20c2.6 0 3.5-1.8 2.3-3.9L38.6 64.3l-.2-.3-23-38.3z" fill="url(#d)"/><path d="M50.8 0h-20A8.8 8.8 0 0 0 24 3.8l-8.8 14.6c-1 2.2-1 5.3.2 7.3L30 49.8a8.2 8.2 0 0 1 0-7.7l14.2-23.6c0-.2 0-.4.2-.5L53 3.4C54 1.5 53 0 50.7 0h.1z" fill="url(#e)"/><path d="M15.4 25.7L30 49.8a8.2 8.2 0 0 1 0-7.7l5.1-8.5-20-15.2c-1 2.2-1 5.3.3 7.3z" fill="url(#f)"/></g></svg>