<svg width="118" height="92" xmlns="http://www.w3.org/2000/svg"><defs><radialGradient cx="40.7%" cy="-5.2%" fx="40.7%" fy="-5.2%" r="153.1%" gradientTransform="matrix(1 0 0 .7283 0 0)" id="a"><stop stop-color="#0DA960" offset="0%"/><stop stop-color="#03914B" offset="100%"/></radialGradient><radialGradient cx="62.7%" cy="6.1%" fx="62.7%" fy="6.1%" r="155.8%" gradientTransform="matrix(1 0 0 .7792 0 0)" id="b"><stop stop-color="#FFCD4D" offset="0%"/><stop stop-color="#F6C338" offset="100%"/></radialGradient><linearGradient x1="122.5%" y1="50%" x2="-2.7%" y2="50%" id="c"><stop stop-color="#231F20" stop-opacity=".2" offset="0%"/><stop stop-color="#F1F2F2" stop-opacity=".3" offset="100%"/></linearGradient><radialGradient cx="60.7%" cy="112%" fx="60.7%" fy="112%" r="153.1%" gradientTransform="matrix(-1 0 0 -.72669 1.2 2)" id="d"><stop stop-color="#4387FD" offset="0%"/><stop stop-color="#4683EA" offset="100%"/></radialGradient><radialGradient cx="32.7%" cy="87.8%" fx="32.7%" fy="87.8%" r="155.8%" gradientTransform="matrix(-1 0 0 -.7814 .7 1.6)" id="e"><stop stop-color="#E04A3F" offset="0%"/><stop stop-color="#CD372D" offset="100%"/></radialGradient><linearGradient x1="-22.5%" y1="50%" x2="102.7%" y2="50%" id="f"><stop stop-color="#231F20" stop-opacity=".2" offset="0%"/><stop stop-color="#F1F2F2" stop-opacity=".3" offset="100%"/></linearGradient></defs><g fill-rule="nonzero" fill="none"><g fill="#EAEAEA"><path d="M52.2 52v5.5c0 .4.3.8.8.8.4 0 .8-.4.8-.8v-5L51.2 50c-.5-.6-.8-1.4-.6-2.2l.7-2.5h-.8l.6-.8.3.1c.3-1 1.3-1.6 2.3-1.6v-2.6c0-.4-.4-.8-.8-.8-.5 0-.8.4-.8.8v1h-.6V39c0-.4-.4-.8-.8-.8-.5 0-.8.4-.8.8v4.3l-.4.6-.4-.6V39c0-.4-.4-.8-.8-.8-.5 0-.8.4-.8.8v2.3h-1v-3.6c0-.5-.3-.8-.7-.8-.5 0-.8.3-.8.8V42l-.5.7V39c0-.4-.4-.8-.8-.8-.5 0-.8.4-.8.8v1h-.6c-1 0-1.7.7-1.7 1.6A1.7 1.7 0 0 0 43 43v.8h-2l-1.3-2v-4.2c0-.5-.4-.8-.8-.8s-.8.3-.8.8v4.5l.1.5 2.2 3.2V56c0 .5.3.8.8.8.4 0 .8-.3.8-.8v-5.4h.8V56c0 .5.4.8.8.8s.8-.3.8-.8V46l.9 1.4v10.2c0 .4.3.8.8.8.4 0 .8-.4.8-.8v-5.4h.8v5.4c0 .4.3.8.8.8.4 0 .8-.4.8-.8V47.4l.3-.5.3.5v10.2c0 .4.3.8.8.8.4 0 .8-.4.8-.8v-5.4h.8l-.1-.2zm-5-6.8h-1.5l-.5-.7.5-.8c.4.8 1.4 1 2.2.7l.5.8h-1.2zm8.2-1.6a4 4 0 0 1 1.8-1.5v-1.3c0-.5-.4-.9-.8-.9l-.5.2v-1.3c0-.4-.4-.8-.8-.8s-.8.4-.8.8V43c.4.1.7.4 1 .7l.1-.1zm-.5 10.2l-.6-.6v4.5l.6-.7v-3.2zm21.8-16.3c-.5 0-.8.3-.8.7v4.4l-1.3 1.8h-2v-.7h.6c1 0 1.7-.7 1.7-1.6a1.6 1.6 0 0 0-2.2-1.5v-1c0-.4-.4-.8-.8-.8-.5 0-.8.4-.8.8v3.7l-.5-.7v-4.4c0-.4-.3-.7-.8-.7-.4 0-.8.3-.8.7V42h-.8v-2.3c0-.4-.4-.8-.8-.8s-.8.4-.8.8V44l-.4.6v-.1 3-.1l.3.4v10.3c0 .4.4.8.8.8s.8-.4.8-.8v-5.5h.8v5.5c0 .4.3.8.7.8.5 0 .8-.4.8-.8V47.8l.9-1.3v10.2c0 .5.3.8.8.8.4 0 .7-.3.7-.8v-5.4h.8v5.4c0 .5.4.8.8.8.5 0 .8-.3.8-.8V46.5l2.1-3.3.1-.4v-4.6c0-.4-.3-.7-.7-.7zm-6.8 8.3h-2.6l.5-.8c.7.3 1.6 0 2-.7l.6.7-.5.8zm-3.7 2.4l-.2.2-3.2 4.7v5.1l.1.1c.5 0 .8-.4.8-.8v-5.3h.8v5.3c0 .4.4.8.9.8.4 0 .8-.4.8-.8v-9.3zm-4.5-8.8c0-.5-.4-.8-.8-.8s-.8.3-.8.8a.8.8 0 0 0-.5-.1c-.4 0-.8.3-.8.8v1.6c1.1 0 2.2.5 2.9 1.4v-3.7zM44.4 36a2 2 0 0 0 .1-2c-.4-.8-2.2-2.2-1.2-3 .5-.4-.2-1.2-.8-.7-.6.5-.7 1.3-.4 2 .3 1 2.2 2.1 1.4 3.2-.5.6.5 1.1.9.6V36zm29.3-4.7c.6-.1.4-1.2-.3-1.2-.7.1-1.2.8-1.4 1.6-.3 1 .8 3-.5 3.6-.6.2-.1 1.2.5 1 .7-.3 1.1-1 1.1-1.8 0-.9-.6-3.1.6-3.2zm-22 4.6c.1.7.6 1.4 1.3 1.5.7.2 1.1-.8.4-1-1.3-.3-.4-2.3-.8-3.3-.3-.7-.8-1.3-1.6-1.3-.7 0-.8 1-.1 1 1.2 0 .7 2.3.8 3v.1zM65.4 32c.3-.8.3-1.6-.2-2.2-.5-.6-1.4.1-1 .6 1 1-1 2.2-1.6 2.9a2 2 0 0 0-.1 2.2c.3.6 1.4.2 1-.5-.7-1.2 1.4-2 1.9-3zm-10 .9c.3.6 1 1 1.6 1.1.7 0 .9-1.1.2-1.1-1.4 0-1-2.2-1.7-3-.5-.7-1.1-1.1-2-1-.6.2-.5 1.3.2 1.1 1.3-.3 1.2 2 1.6 2.8l.1.1zm-8.1 3.4c1.1 0 1.1-1.7 0-1.7s-1.1 1.7 0 1.7zM40 34c1.1 0 1.1-1.6 0-1.6-1.2 0-1.2 1.7 0 1.7V34zm21.4-3.9c-1.1 0-1.1 1.7 0 1.7s1.1-1.7 0-1.7zm-1.7 5.7c1.1 0 1.1-1.7 0-1.7s-1.1 1.7 0 1.7zm8.4-2.3c1.2 0 1.2-1.7 0-1.7-1 0-1 1.7 0 1.7zm9.1 0c-1.2 0-1.2 1.7 0 1.7 1 0 1-1.7 0-1.7z"/><path d="M62 52.4l2.8-4.4c.2-.2.2-.4.2-.7v-8.7c0-.6-.5-1.1-1.2-1.1-.6 0-1.1.5-1.1 1.2V47l-.6.9-1.3 2H56l-2-2.2.4-1.7.2-.7v-.1c0-.3 0-.6-.2-.8-.1-.2-.4-.5-.7-.5h-.3c-.5 0-1 .3-1.1.9v.2l-.2.3-.5 2.5c-.1.4 0 .8.2 1.1l1.7 1.8.6.6 1.7 1.9v4.2l-.2.1-1.3 1.7-2.5 3.1c-.4.5-.4 1.3.1 1.7l3 3a1.2 1.2 0 0 0 1.7-.2c.5-.5.5-1.2 0-1.7L54.4 63l2-2.5h2.9v8.4c0 .7.5 1.2 1.1 1.2.7 0 1.2-.5 1.2-1.2V53l.5-.7-.1.1z"/><path d="M56.1 46.6A2.8 2.8 0 1 0 59 43h-.2c-1.4 0-2.6 1-2.8 2.5v.3l.1.7v.1z"/></g><path d="M101.7 66.3c1.1 2 1.2 5 .1 7.2l14.3-23.7a8.2 8.2 0 0 0 0-7.7L93 3.8A8.9 8.9 0 0 0 86.3 0h-20c-2.5 0-3.5 1.7-2.2 3.8l14.3 23.9.3.3 23 38.3z" fill="url(#a)"/><path d="M66.2 92h20c2.5 0 5.6-1.8 6.9-3.9l8.7-14.6c1-2.1 1-5.2-.1-7.2L87 42.1a8.3 8.3 0 0 1 0 7.7L72.8 73.5c0 .2 0 .3-.2.5L64 88.5c-.9 2 0 3.5 2.3 3.5h-.1z" fill="url(#b)"/><path d="M101.7 66.3L87 42.1a8.3 8.3 0 0 1 0 7.7l-5.2 8.6 20 15.1c1-2.1 1-5.2-.2-7.2h.1z" fill="url(#c)"/><path d="M15.4 25.7a8.1 8.1 0 0 1-.2-7.3L1 42.1a8.2 8.2 0 0 0 0 7.7l23 38.3c1.5 2.3 4 3.7 6.7 3.9h20c2.6 0 3.5-1.8 2.3-3.9L38.6 64.3l-.2-.3-23-38.3z" fill="url(#d)"/><path d="M50.8 0h-20A8.8 8.8 0 0 0 24 3.8l-8.8 14.6c-1 2.2-1 5.3.2 7.3L30 49.8a8.2 8.2 0 0 1 0-7.7l14.2-23.6c0-.2 0-.4.2-.5L53 3.4C54 1.5 53 0 50.7 0h.1z" fill="url(#e)"/><path d="M15.4 25.7L30 49.8a8.2 8.2 0 0 1 0-7.7l5.1-8.5-20-15.2c-1 2.2-1 5.3.3 7.3z" fill="url(#f)"/></g></svg>