<svg width="125" height="100" xmlns="http://www.w3.org/2000/svg"><defs><filter x="-5%" y="-6.5%" width="110.1%" height="113%" filterUnits="objectBoundingBox" id="a"><feOffset in="SourceAlpha" result="shadowOffsetOuter1"/><feGaussianBlur stdDeviation="2" in="shadowOffsetOuter1" result="shadowBlurOuter1"/><feColorMatrix values="0 0 0 0 0 0 0 0 0 0 0 0 0 0 0 0 0 0 0.5 0" in="shadowBlurOuter1" result="shadowMatrixOuter1"/><feMerge><feMergeNode in="shadowMatrixOuter1"/><feMergeNode in="SourceGraphic"/></feMerge></filter><radialGradient cx="40.7%" cy="-7.2%" fx="40.7%" fy="-7.2%" r="153.1%" gradientTransform="scale(1 .72776)" id="b"><stop stop-color="#0DA960" offset="0%"/><stop stop-color="#03914B" offset="100%"/></radialGradient><radialGradient cx="62.7%" cy="7.8%" fx="62.7%" fy="7.8%" r="155.8%" gradientTransform="scale(1 .78286)" id="c"><stop stop-color="#FFCD4D" offset="0%"/><stop stop-color="#F6C338" offset="100%"/></radialGradient><linearGradient x1="122.5%" y1="50%" x2="-2.7%" y2="50%" id="d"><stop stop-color="#231F20" stop-opacity=".2" offset="0%"/><stop stop-color="#F1F2F2" stop-opacity=".3" offset="100%"/></linearGradient><radialGradient cx="59.3%" cy="107.2%" fx="59.3%" fy="107.2%" r="153.1%" gradientTransform="matrix(-1 0 0 -.72789 1.2 1.9)" id="e"><stop stop-color="#4387FD" offset="0%"/><stop stop-color="#4683EA" offset="100%"/></radialGradient><radialGradient cx="37.3%" cy="92.2%" fx="37.3%" fy="92.2%" r="155.8%" gradientTransform="matrix(-1 0 0 -.78284 .7 1.6)" id="f"><stop stop-color="#E04A3F" offset="0%"/><stop stop-color="#CD372D" offset="100%"/></radialGradient><linearGradient x1="-22.5%" y1="50%" x2="102.7%" y2="50%" id="g"><stop stop-color="#231F20" stop-opacity=".2" offset="0%"/><stop stop-color="#F1F2F2" stop-opacity=".3" offset="100%"/></linearGradient></defs><g fill="none"><g fill="#757575"><path d="M56.2 56v5.5c0 .4.3.8.8.8.4 0 .8-.4.8-.8v-5L55.2 54c-.5-.6-.8-1.4-.6-2.2l.7-2.5h-.8l.6-.8.3.1a2.3 2.3 0 0 1 2.3-1.6v-2.6c0-.4-.4-.8-.8-.8-.5 0-.8.4-.8.8v1a1.7 1.7 0 0 0-.6 0V43c0-.4-.4-.8-.8-.8-.5 0-.8.4-.8.8v4.3l-.4.6-.4-.6V43c0-.4-.4-.8-.8-.8-.5 0-.8.4-.8.8v2.3a1.7 1.7 0 0 0-1 0v-3.6c0-.5-.3-.8-.7-.8-.5 0-.8.3-.8.8V46l-.5.7V43c0-.4-.4-.8-.8-.8-.5 0-.8.4-.8.8v1h-.6c-1 0-1.7.7-1.7 1.6A1.7 1.7 0 0 0 47 47v.8h-2l-1.3-2v-4.2c0-.5-.4-.8-.8-.8s-.8.3-.8.8v4.5l.1.5 2.2 3.2V60c0 .5.3.8.8.8.4 0 .8-.3.8-.8v-5.4h.8V60c0 .5.4.8.8.8s.8-.3.8-.8V50l.9 1.4v10.2c0 .4.3.8.8.8.4 0 .8-.4.8-.8v-5.4h.8v5.4c0 .4.3.8.8.8.4 0 .8-.4.8-.8V51.4l.3-.5.3.5v10.2c0 .4.3.8.8.8.4 0 .8-.4.8-.8v-5.4h.8zm-5-6.8h-1.5l-.5-.7.5-.8a1.7 1.7 0 0 0 2.2.7l.5.8h-1.2zm8.2-1.6a4 4 0 0 1 1.8-1.5v-1.3c0-.5-.4-.9-.8-.9l-.5.2v-1.3c0-.4-.4-.8-.8-.8s-.8.4-.8.8V47a2.2 2.2 0 0 1 1 .7zm-.5 10.2l-.6-.6v4.5l.6-.7zm21.8-16.3c-.5 0-.8.3-.8.7v4.4l-1.3 1.8h-2v-.7h.6c1 0 1.7-.7 1.7-1.6a1.6 1.6 0 0 0-2.2-1.5v-1c0-.4-.4-.8-.8-.8-.5 0-.8.4-.8.8v3.7l-.5-.7v-4.4c0-.4-.3-.7-.8-.7-.4 0-.8.3-.8.7V46a1.6 1.6 0 0 0-.8 0v-2.3c0-.4-.4-.8-.8-.8s-.8.4-.8.8V48l-.4.6v-.1 3-.1l.3.4v10.3c0 .4.4.8.8.8s.8-.4.8-.8v-5.5h.8v5.5c0 .4.3.8.7.8.5 0 .8-.4.8-.8V51.8l.9-1.3v10.2c0 .5.3.8.8.8.4 0 .7-.3.7-.8v-5.4h.8v5.4c0 .5.4.8.8.8.5 0 .8-.3.8-.8V50.5l2.1-3.3.1-.4v-4.6c0-.4-.3-.7-.7-.7zm-6.8 8.3h-2.6l.5-.8a1.6 1.6 0 0 0 2-.7l.6.7-.5.8zm-3.7 2.4l-.2.2-3.2 4.7v5.1l.1.1c.5 0 .8-.4.8-.8v-5.3h.8v5.3c0 .4.4.8.9.8.4 0 .8-.4.8-.8v-9.3zm-4.5-8.8c0-.5-.4-.8-.8-.8s-.8.3-.8.8a.8.8 0 0 0-.5-.1c-.4 0-.8.3-.8.8v1.6a3.7 3.7 0 0 1 2.9 1.4v-3.7zM48.4 40a2 2 0 0 0 .1-2c-.4-.8-2.2-2.2-1.2-3 .5-.4-.2-1.2-.8-.7-.6.5-.7 1.3-.4 2 .3 1 2.2 2.1 1.4 3.2-.5.6.5 1.1.9.6zm29.3-4.7c.6-.1.4-1.2-.3-1.2-.7.1-1.2.8-1.4 1.6-.3 1 .8 3-.5 3.6-.6.2-.1 1.2.5 1 .7-.3 1.1-1 1.1-1.8 0-.9-.6-3.1.6-3.2zm-22 4.6c.1.7.6 1.4 1.3 1.5.7.2 1.1-.8.4-1-1.3-.3-.4-2.3-.8-3.3-.3-.7-.8-1.3-1.6-1.3-.7 0-.8 1-.1 1 1.2 0 .7 2.3.8 3zM69.4 36c.3-.8.3-1.6-.2-2.2-.5-.6-1.4.1-1 .6 1 1-1 2.2-1.6 2.9a2 2 0 0 0-.1 2.2c.3.6 1.4.2 1-.5-.7-1.2 1.4-2 1.9-3zm-10 .9A2 2 0 0 0 61 38c.7 0 .9-1.1.2-1.1-1.4 0-1-2.2-1.7-3-.5-.7-1.1-1.1-2-1-.6.2-.5 1.3.2 1.1 1.3-.3 1.2 2 1.6 2.8zm-8.1 3.4c1.1 0 1.1-1.7 0-1.7s-1.1 1.7 0 1.7zM44 38c1.1 0 1.1-1.6 0-1.6-1.2 0-1.2 1.7 0 1.7zm21.4-3.9c-1.1 0-1.1 1.7 0 1.7s1.1-1.7 0-1.7zm-1.7 5.7c1.1 0 1.1-1.7 0-1.7s-1.1 1.7 0 1.7zm8.4-2.3c1.2 0 1.2-1.7 0-1.7-1 0-1 1.7 0 1.7zm9.1 0c-1.2 0-1.2 1.7 0 1.7 1 0 1-1.7 0-1.7z"/><path d="M66 56.4l2.8-4.4c.2-.2.2-.4.2-.7v-8.7c0-.6-.5-1.1-1.2-1.1-.6 0-1.1.5-1.1 1.2V51l-.6.9-1.3 2H60l-2-2.2.4-1.7.2-.7v-.1a1.2 1.2 0 0 0-.2-.8c-.1-.2-.4-.5-.7-.5h-.3c-.5 0-1 .3-1.1.9v.2l-.2.3-.5 2.5c-.1.4 0 .8.2 1.1l1.7 1.8.6.6 1.7 1.9v4.2l-.2.1-1.3 1.7-2.5 3.1c-.4.5-.4 1.3.1 1.7l3 3a1.2 1.2 0 0 0 1.7-.2c.5-.5.5-1.2 0-1.7L58.4 67l2-2.5h2.9v8.4c0 .7.5 1.2 1.1 1.2.7 0 1.2-.5 1.2-1.2V57l.5-.7z"/><path d="M60.1 50.6A2.8 2.8 0 1 0 63 47h-.2a2.8 2.8 0 0 0-2.8 2.5v.3a2.8 2.8 0 0 0 .1.7z"/></g><g filter="url(#a)" transform="translate(3 4)"><path d="M102.7 66.3c1.1 2 1.2 5 .1 7.2l14.3-23.7a8.2 8.2 0 0 0 0-7.7L94 3.8A8.9 8.9 0 0 0 87.3 0h-20c-2.5 0-3.5 1.7-2.2 3.8l14.3 23.9.3.3 23 38.3z" fill="url(#b)"/><path d="M67.2 92h20c2.5 0 5.6-1.8 6.9-3.9l8.7-14.6c1-2.1 1-5.2-.1-7.2L88 42.1a8.3 8.3 0 0 1 0 7.7L73.8 73.5c0 .2 0 .3-.2.5L65 88.5c-.9 2 0 3.5 2.3 3.5z" fill="url(#c)"/><path d="M102.7 66.3L88 42.1a8.3 8.3 0 0 1 0 7.7l-5.2 8.6 20 15.1c1-2.1 1-5.2-.2-7.2z" fill="url(#d)"/><path d="M16.4 25.7c-1.2-2-1.3-5.1-.2-7.3L2 42.1a8.2 8.2 0 0 0 0 7.7l23 38.3a8.8 8.8 0 0 0 6.7 3.9h20c2.6 0 3.5-1.8 2.3-3.9L39.6 64.3l-.2-.3-23-38.3z" fill="url(#e)"/><path d="M51.8 0h-20A8.8 8.8 0 0 0 25 3.8l-8.8 14.6c-1 2.2-1 5.3.2 7.3L31 49.8a8.2 8.2 0 0 1 0-7.7l14.2-23.6c0-.2 0-.4.2-.5L54 3.4C55 1.5 54 0 51.7 0z" fill="url(#f)"/><path d="M16.4 25.7L31 49.8a8.2 8.2 0 0 1 0-7.7l5.1-8.5-20-15.2c-1 2.2-1 5.3.3 7.3z" fill="url(#g)"/></g></g></svg>