<svg id="Layer_1" xmlns="http://www.w3.org/2000/svg" viewBox="0 0 577.5 242.9"><style>.st0{fill:#ffd500}.st1{fill:#1ce8b5}.st2{fill:#ff6c00}.st3{fill:#536dfe}</style><path class="st0" d="M99.5 192.3v-1.8l-1.8 1.8zm-81-162v1.8l1.8-1.8zm81 4.6l-81 81v4.8l81-81.1zm0 16.7l-81 81.1v4.7l81-81zm0 16.8l-81 81.1v4.7l81-81.1zm0 16.8l-81 81v4.8l81-81.1zm0 16.7l-81 81.1v4.7l81-81zm0 16.8l-73.6 73.6h4.8l68.8-68.9zm0 16.8l-56.8 56.8h4.7l52.1-52.1zm0 16.7l-40.1 40.1h4.8L99.5 157zm-18.6 40.1l18.6-18.6V169l-23.3 23.3zm-43.8-162L18.5 48.8v4.8l23.3-23.3z"/><path class="st0" d="M97.7 192.3l1.8-1.8v-4.7l-6.6 6.5zm-77.4-162l-1.8 1.8v4.7l6.6-6.5zm67.1 0L18.5 99.2v4.7l73.6-73.6zm-16.8 0L18.5 82.4v4.7l56.9-56.8zm-16.7 0L18.5 65.6v4.8l40.1-40.1z"/><path id="XMLID_262_" transform="rotate(12.74 139.88 113.86)" class="st0" d="M133.9-1.5h12v230.7h-12z"/><path class="st1" d="M250 69.3a42 42 0 1 1 .01 84.01A42 42 0 0 1 250 69.3m0-8.4c-27.8 0-50.4 22.5-50.4 50.4s22.5 50.4 50.4 50.4 50.4-22.5 50.4-50.4-22.5-50.4-50.4-50.4z"/><path class="st2" d="M250 35.8c41.7 0 75.5 33.9 75.5 75.5s-33.9 75.5-75.5 75.5-75.5-33.9-75.5-75.5 33.9-75.5 75.5-75.5m0-8.4c-46.4 0-83.9 37.6-83.9 83.9s37.6 83.9 83.9 83.9c46.4 0 83.9-37.6 83.9-83.9S296.4 27.4 250 27.4z"/><path class="st3" d="M250 102.9c4.6 0 8.4 3.8 8.4 8.4s-3.8 8.4-8.4 8.4c-4.6 0-8.4-3.8-8.4-8.4s3.8-8.4 8.4-8.4m0-8.4c-9.3 0-16.8 7.5-16.8 16.8s7.5 16.8 16.8 16.8 16.8-7.5 16.8-16.8-7.5-16.8-16.8-16.8z"/><path class="st1" d="M487.4 102.4c-12.5 0-22.7-10.2-22.7-22.7S474.9 57 487.4 57s22.7 10.2 22.7 22.7-10.2 22.7-22.7 22.7m0 8.4c17.2 0 31.2-14 31.2-31.2s-14-31.2-31.2-31.2-31.2 14-31.2 31.2c.1 17.3 14 31.2 31.2 31.2z"/><circle class="st3" cx="487.4" cy="79.7" r="10.5"/><path class="st2" d="M487.4 195.7a52.7 52.7 0 1 1 .01-105.41 52.7 52.7 0 0 1-.01 105.41zm0-84.4c-17.4 0-31.6 14.2-31.6 31.6s14.2 31.6 31.6 31.6 31.6-14.2 31.6-31.6-14.1-31.6-31.6-31.6z"/><path class="st1" d="M353.6 174.6h63.3v21.1h-63.3z"/><path class="st0" d="M374.7 69.1h21.1V164h-21.1z"/><path class="st2" d="M385.3 27h-10.5c0 11.6-9.4 21.1-21.1 21.1v21a42.2 42.2 0 0 0 42.2-42.2h-10.6z"/><path class="st0" d="M487.4 123.9c-24.4 0-44.3-19.9-44.3-44.3s19.9-44.3 44.3-44.3 44.3 19.9 44.3 44.3c0 24.5-19.9 44.3-44.3 44.3m0 8.5a52.7 52.7 0 1 0-.01-105.41 52.7 52.7 0 0 0 .01 105.41z"/></svg>