<svg xmlns="http://www.w3.org/2000/svg" viewBox="0 0 438.5 438.5"><path d="M414.4 24.1a79.2 79.2 0 0 0-58-24.1H82.1c-22.6 0-42 8-58 24.1A79.2 79.2 0 0 0 0 82.2v274.1c0 22.7 8 42 24.1 58.1 16.1 16 35.5 24.1 58.1 24.1h274.1c22.7 0 42-8 58.1-24 16-16.2 24.1-35.5 24.1-58.2v-274c0-22.7-8-42.1-24-58.2zm-280.8 343h-66v-198h66v198zm-6-234.8a37.6 37.6 0 0 1-27.1 9.9h-.3a36.3 36.3 0 0 1-26.4-9.9A32.7 32.7 0 0 1 63.7 108c0-10 3.3-18 10.3-24.6a38 38 0 0 1 27-9.7c11 0 19.9 3.2 26.5 9.7 6.7 6.4 10.1 14.6 10.3 24.5 0 9.7-3.4 17.9-10.3 24.4zM371 367.2h-66v-106c0-29.8-11-44.8-33-44.8-8.5 0-15.5 2.3-21.2 7a44 44 0 0 0-12.9 17c-1.3 3.4-2 8.7-2 16v110.8h-66c.7-119.6.7-185.6 0-198.2h66v28a66.2 66.2 0 0 1 59.1-32.6c22.9 0 41.2 7.6 55.1 22.6 14 15 20.9 37.2 20.9 66.5v113.7z" fill="#cfd8dc"/></svg>