<svg xmlns="http://www.w3.org/2000/svg" viewBox="0 0 48 48" width="48" height="48"><path d="M32.164 6.367c-.64-.316-1.164.004-1.164.723v28.45l11.676 5.835c1.285.64 2.324.191 2.324-1.004V12.973a.304.304 0 0 0-.168-.27z" fill="#d0d0d0"/><path d="M17 28.535l13.32-21.64c.375-.61 1.203-.844 1.844-.528l12.684 6.344a.158.158 0 0 1 .062.223L31 35.535z" fill="#a1a1a1"/><path d="M4.938 6.758c-1.067-.535-1.426-.14-.801.875L17 28.535l14 7-13.969-22.7a.213.213 0 0 0-.082-.073z" fill="gray"/><path d="M17 40.371c0 1.191-.871 1.73-1.938 1.195L4.165 36.117C3.524 35.801 3 34.953 3 34.238V7.52c0-.954.7-1.383 1.55-.957l12.376 6.187c.047.023.074.07.074.121z" fill="#575757"/></svg>