<svg class="social-icon" xmlns="http://www.w3.org/2000/svg" viewBox="0 0 54 54"><path fill="none" d="M-.2.1h53.8v53.4H-.2z"/><path fill="#cfd8dc" d="M5.1 24.8c.1.6 0 1.1-.3 1.6s-.8.8-1.4.9-1.1 0-1.6-.4a2 2 0 0 1-.9-1.4c-.1-.6 0-1.1.3-1.6a2.2 2.2 0 0 1 3-.6c.5.4.8.9.9 1.5zm38.8 3.6a9 9 0 0 1 1.2 6.8 8.8 8.8 0 0 1-3.8 5.8 9.3 9.3 0 0 1-5.6 1.7 5.9 5.9 0 0 1-2.4 3.5 5.8 5.8 0 0 1-4 1.2c-1.5 0-2.8-.6-3.9-1.6l-.4.3c-1.9 1.3-4 1.8-6.3 1.4s-4.1-1.6-5.4-3.5a9.3 9.3 0 0 1-1.5-4.6 7.6 7.6 0 0 1-4-2 7.2 7.2 0 0 1-2.2-3.6 7.8 7.8 0 0 1 2.2-8.1 7.6 7.6 0 0 1-.4-7.1c.5-1.1 1.2-2 2.2-2.7 1-.8 2.1-1.2 3.4-1.4.6-1.6 1.5-3 2.8-4.1 1.2-1.2 2.6-2 4.1-2.6s3-.7 4.7-.5 3.1.8 4.5 1.9c1.3-.4 2.6-.6 3.9-.5 1.3.1 2.5.4 3.6 1s2.1 1.3 2.9 2.2c.8.9 1.4 2 1.9 3.2.4 1.3.6 2.6.5 3.9 1 .3 1.8.8 2.4 1.6.7.8 1.1 1.6 1.3 2.5s.1 1.8-.2 2.8a3.8 3.8 0 0 1-1.5 2.5zM10.1 41.1c.2.1.4.4.4.6.1.3 0 .5-.1.8-.1.2-.4.4-.6.4-.3.1-.5 0-.7-.1-.2-.1-.4-.4-.4-.6-.1-.3 0-.5.1-.8.1-.2.4-.4.6-.4.2-.1.5-.1.7.1zM12.6 10c.3.4.3.8.3 1.2-.1.5-.3.8-.7 1.1-.4.3-.8.3-1.2.3-.5-.1-.8-.3-1-.7-.3-.4-.3-.8-.3-1.2.1-.5.3-.8.7-1.1.4-.3.8-.3 1.2-.3.4.1.7.3 1 .7zm24.5 25.7c-.1-.4-.3-.8-.8-.9-.4-.2-.9-.3-1.4-.3-.5 0-.9-.1-1.4-.3s-.7-.6-.7-1.1c-.1-.9.2-2.2.9-3.9l2.1-5.1c.7-1.7 1-2.8.9-3.6-.3-1.9-1.3-2.8-3.3-2.9-.8 0-1.5.1-2.1.4l-.1.1-.1.1-.1.1-.1.1h-.3l-.2-.1-.2-.1-.3-.2-.3-.3-.2-.2-.3-.2-.3-.2-.3-.1-.3-.1c-.6-.1-1-.1-1.3.1s-.8.4-1.3.9l-.3.2-.3.3-.4.3-.5.2-.5-.1-2.3-1.1c-.8-.3-1.6-.3-2.6.1s-1.7 1-2.1 1.8a31.6 31.6 0 0 0-2.3 6.4l-1.1 3.7-.6 2c-.4 1.3-.2 2.4.5 3.3s1.8 1.4 3.1 1.3c.6 0 1-.2 1.4-.4.4-.2.7-.7 1.1-1.3l2.2-5.6 2.1-5.4c.1-.2.3-.4.6-.5.3-.1.6-.1.8 0 .5.3.7.8.6 1.5 0 .3-.5 1.6-1.4 3.9l-1.4 3.7c-.1.7.1 1.2.5 1.6.5.3 1 .4 1.7.2s1.2-.7 1.5-1.4l1.3-2.6 2.3-4.6 1.3-2.5c.4-.5.8-.8 1.1-.8.5 0 .8.4.7 1.1 0 .3-.6 1.7-1.8 4.1a40 40 0 0 0-2 4.5c-.2 1-.1 1.9.4 2.9.5.9 1.2 1.6 2.1 2.1a12.3 12.3 0 0 0 3.4.6c.7 0 1.3-.1 1.7-.4.6-.2.8-.7.7-1.3zM17 2.2c.1.3 0 .6-.1.9-.2.3-.4.4-.7.5-.3.1-.6 0-.9-.2-.3-.2-.5-.4-.5-.7-.1-.3 0-.6.2-.9.2-.3.4-.4.7-.5.3-.1.6 0 .9.2.2.1.3.4.4.7zm9.4 46.9c.2.3.3.7.2 1-.1.4-.3.7-.6.9s-.7.3-1 .2c-.4-.1-.7-.3-.9-.6-.2-.3-.3-.7-.2-1 .1-.4.3-.7.6-.9.3-.2.7-.3 1-.2s.7.2.9.6zm5.2-45.4c.3.5.4 1 .2 1.6s-.5 1-1 1.3c-.5.3-1 .4-1.6.2-.6-.1-1-.5-1.3-1-.3-.5-.4-1.1-.2-1.6.1-.6.5-1 1-1.3.5-.3 1-.4 1.6-.3.5.3 1 .6 1.3 1.1zm9.2 41.6c.4.5.5 1.1.4 1.7-.1.6-.4 1.1-.9 1.5a2 2 0 0 1-1.7.4 2 2 0 0 1-1.4-.9 2 2 0 0 1-.4-1.7c.1-.6.4-1.1.9-1.5a2 2 0 0 1 1.7-.4c.5.1 1 .4 1.4.9zm6.2-30c.3.4.4.9.3 1.4-.1.5-.3.9-.7 1.2-.4.3-.9.4-1.4.3-.5-.1-.9-.3-1.2-.8-.3-.4-.4-.9-.3-1.4.1-.5.3-.9.8-1.2.4-.3.9-.4 1.4-.3.5.1.9.4 1.1.8zm3.1 13.3c.1.4 0 .7-.2 1-.2.3-.5.5-.9.6-.4.1-.7 0-1-.2-.3-.2-.5-.5-.6-.9-.1-.4 0-.7.2-1 .2-.3.5-.5.9-.6.4-.1.7 0 1 .2l.6.9zm2.3-6.6c.1.3 0 .5-.1.8l-.6.5c-.3.1-.5 0-.8-.2-.2-.2-.4-.4-.4-.6-.1-.3 0-.5.1-.8.1-.2.4-.4.6-.4.3-.1.5 0 .7.1.3.1.4.3.5.6z"/></svg>