<svg width="118" height="92" xmlns="http://www.w3.org/2000/svg"><defs><radialGradient cx="40.7%" cy="-5.2%" fx="40.7%" fy="-5.2%" r="153.1%" gradientTransform="matrix(1 0 0 .7283 0 0)" id="a"><stop stop-color="#0DA960" offset="0%"/><stop stop-color="#03914B" offset="100%"/></radialGradient><radialGradient cx="62.7%" cy="6.1%" fx="62.7%" fy="6.1%" r="155.8%" gradientTransform="matrix(1 0 0 .7792 0 0)" id="b"><stop stop-color="#FFCD4D" offset="0%"/><stop stop-color="#F6C338" offset="100%"/></radialGradient><linearGradient x1="122.5%" y1="50%" x2="-2.7%" y2="50%" id="c"><stop stop-color="#231F20" stop-opacity=".2" offset="0%"/><stop stop-color="#F1F2F2" stop-opacity=".3" offset="100%"/></linearGradient><radialGradient cx="60.7%" cy="112%" fx="60.7%" fy="112%" r="153.1%" gradientTransform="matrix(-1 0 0 -.72669 1.2 2)" id="d"><stop stop-color="#4387FD" offset="0%"/><stop stop-color="#4683EA" offset="100%"/></radialGradient><radialGradient cx="32.7%" cy="87.8%" fx="32.7%" fy="87.8%" r="155.8%" gradientTransform="matrix(-1 0 0 -.7814 .7 1.6)" id="e"><stop stop-color="#E04A3F" offset="0%"/><stop stop-color="#CD372D" offset="100%"/></radialGradient><linearGradient x1="-22.5%" y1="50%" x2="102.7%" y2="50%" id="f"><stop stop-color="#231F20" stop-opacity=".2" offset="0%"/><stop stop-color="#F1F2F2" stop-opacity=".3" offset="100%"/></linearGradient></defs><g fill-rule="nonzero" fill="none"><g fill="#EAEAEA"><path d="M51.2 52.4a7.5 7.5 0 1 0-8.4 0 5.1 5.1 0 0 0-3.7 4.9v9c0 .3.3.7.7.7h14.3c.4 0 .8-.4.8-.8v-8.9c0-2.3-1.6-4.3-3.7-4.9zm-2.5 2.3l-1-1h1.9l-1 1h.1zm-2.9-1l1.8 2-1.7 1.2-.8-3.2h.7zm5.5.3l.2.1-.2 2.7-1.5-1.1 1.5-1.7zM41 46.2a6 6 0 1 1 12 0 6 6 0 0 1-12 0zm-.4 11.1c0-1.8 1.3-3.3 3-3.6l1.2 4.7a.7.7 0 0 0 1.1.4l2-1.5v8.2h-3.7v-7.3a.7.7 0 1 0-1.5 0v7.3h-2.1v-8.2zm12.8 8.2h-4v-8.2l2 1.5a.7.7 0 0 0 1.2-.5l.3-2.8c.3.5.5 1.1.5 1.8v8.2z"/><path d="M51 59.4c0-.3-.3-.5-.6-.5-.4 0-.6.2-.7.6-.1.3 0 .6.3.8.2.1.6.1.8 0a.7.7 0 0 0 .3-1l-.1.1zm-4.3-14.6a.7.7 0 0 0-.7-.4c-.3 0-.5.1-.6.4-.2.3 0 .6.2.9.2.2.6.2.8 0 .3-.2.4-.6.3-.9zm3.5.6c0 .3.4.4.7.4.3 0 .6-.2.7-.5 0-.3 0-.6-.3-.8a.7.7 0 0 0-.9 0c-.3.2-.4.6-.2.9zm19-7.2a.7.7 0 0 0 1.1-.6v-1.7h.8c1.2 0 2.3-1 2.3-2.3v-7.7c0-1.3-1-2.3-2.3-2.3h-7.7v-.3c0-1.3-1-2.3-2.3-2.3H47.6c-1.2 0-2.3 1-2.3 2.3V31c0 1.3 1 2.3 2.3 2.3h.8V35a.7.7 0 0 0 1.1.6l3.7-2.3h2v.3c0 1.3 1 2.3 2.3 2.3h8l3.7 2.3zM53 31.8l-.4.1-2.8 1.8v-1.2c0-.4-.3-.7-.7-.7h-1.5a.8.8 0 0 1-.8-.8v-7.7c0-.5.4-.8.8-.8h13.5c.5 0 .9.3.9.8v.3h-4.5c-1 0-1.8.6-2.1 1.5h-5.6a.7.7 0 1 0 0 1.5h5.5v1.2h-5.5a.7.7 0 1 0 0 1.5h5.5v2.5H53zm3.7 1.8v-7.7c0-.5.4-.8.8-.8h13.6c.4 0 .8.3.8.8v7.7c0 .4-.4.8-.8.8h-1.5c-.4 0-.8.3-.8.7v1.1l-2.7-1.7a.7.7 0 0 0-.4-.1h-8.2a.8.8 0 0 1-.8-.8z"/><path d="M59.7 29.2h9.2a.7.7 0 1 0 0-1.5h-9.2a.7.7 0 1 0 0 1.5zm10 2c0-.4-.4-.8-.8-.8h-9.2a.7.7 0 1 0 0 1.5h9.2c.4 0 .8-.3.8-.7zm5.6 21.2a7.5 7.5 0 1 0-8.4 0 5.1 5.1 0 0 0-3.7 4.9v9c0 .3.3.7.7.7h14.3c.4 0 .8-.4.8-.8v-8.9c0-2.3-1.6-4.3-3.7-4.9zm-1.6 1.3a3.1 3.1 0 0 1-5.2 0h5.2zm-8.6-7.5a6 6 0 1 1 12 0 6 6 0 0 1-12 0zm-.4 11.1a4 4 0 0 1 2.2-3.4 4.6 4.6 0 0 0 8.3 0c1.4.6 2.3 1.9 2.3 3.4v2.6h-2.6v-1.7a.7.7 0 1 0-1.5 0v7.3h-8.7v-8.2zm10.2 8.2v-4.1h2.6v4h-2.6v.1z"/><path d="M71.4 45.4c0 .3.4.5.7.4.3 0 .6-.2.6-.5.1-.3 0-.6-.3-.8a.7.7 0 0 0-.9 0c-.2.3-.3.6-.1.9zM68 45l-.2-.3c-.3-.6-1.2-.4-1.3.3-.1.6.6 1 1 .7.3-.1.5-.5.4-.8l.1.1zm3.2 2.6a.6.6 0 0 0-.8 0 1 1 0 0 1-1.5 0 .6.6 0 0 0-.8.9c.9.9 2.2.9 3.1 0 .3-.3.3-.7 0-.9z"/></g><path d="M101.7 66.3c1.1 2 1.2 5 .1 7.2l14.3-23.7a8.2 8.2 0 0 0 0-7.7L93 3.8A8.9 8.9 0 0 0 86.3 0h-20c-2.5 0-3.5 1.7-2.2 3.8l14.3 23.9.3.3 23 38.3z" fill="url(#a)"/><path d="M66.2 92h20c2.5 0 5.6-1.8 6.9-3.9l8.7-14.6c1-2.1 1-5.2-.1-7.2L87 42.1a8.3 8.3 0 0 1 0 7.7L72.8 73.5c0 .2 0 .3-.2.5L64 88.5c-.9 2 0 3.5 2.3 3.5h-.1z" fill="url(#b)"/><path d="M101.7 66.3L87 42.1a8.3 8.3 0 0 1 0 7.7l-5.2 8.6 20 15.1c1-2.1 1-5.2-.2-7.2h.1z" fill="url(#c)"/><path d="M15.4 25.7a8.1 8.1 0 0 1-.2-7.3L1 42.1a8.2 8.2 0 0 0 0 7.7l23 38.3c1.5 2.3 4 3.7 6.7 3.9h20c2.6 0 3.5-1.8 2.3-3.9L38.6 64.3l-.2-.3-23-38.3z" fill="url(#d)"/><path d="M50.8 0h-20A8.8 8.8 0 0 0 24 3.8l-8.8 14.6c-1 2.2-1 5.3.2 7.3L30 49.8a8.2 8.2 0 0 1 0-7.7l14.2-23.6c0-.2 0-.4.2-.5L53 3.4C54 1.5 53 0 50.7 0h.1z" fill="url(#e)"/><path d="M15.4 25.7L30 49.8a8.2 8.2 0 0 1 0-7.7l5.1-8.5-20-15.2c-1 2.2-1 5.3.3 7.3z" fill="url(#f)"/></g></svg>