<svg width="118" height="92" xmlns="http://www.w3.org/2000/svg"><defs><radialGradient cx="40.7%" cy="-5.2%" fx="40.7%" fy="-5.2%" r="153.1%" gradientTransform="matrix(1 0 0 .7283 0 0)" id="a"><stop stop-color="#0DA960" offset="0%"/><stop stop-color="#03914B" offset="100%"/></radialGradient><radialGradient cx="62.7%" cy="6.1%" fx="62.7%" fy="6.1%" r="155.8%" gradientTransform="matrix(1 0 0 .7792 0 0)" id="b"><stop stop-color="#FFCD4D" offset="0%"/><stop stop-color="#F6C338" offset="100%"/></radialGradient><linearGradient x1="122.5%" y1="50%" x2="-2.7%" y2="50%" id="c"><stop stop-color="#231F20" stop-opacity=".2" offset="0%"/><stop stop-color="#F1F2F2" stop-opacity=".3" offset="100%"/></linearGradient><radialGradient cx="60.7%" cy="112%" fx="60.7%" fy="112%" r="153.1%" gradientTransform="matrix(-1 0 0 -.72669 1.2 2)" id="d"><stop stop-color="#4387FD" offset="0%"/><stop stop-color="#4683EA" offset="100%"/></radialGradient><radialGradient cx="32.7%" cy="87.8%" fx="32.7%" fy="87.8%" r="155.8%" gradientTransform="matrix(-1 0 0 -.7814 .7 1.6)" id="e"><stop stop-color="#E04A3F" offset="0%"/><stop stop-color="#CD372D" offset="100%"/></radialGradient><linearGradient x1="-22.5%" y1="50%" x2="102.7%" y2="50%" id="f"><stop stop-color="#231F20" stop-opacity=".2" offset="0%"/><stop stop-color="#F1F2F2" stop-opacity=".3" offset="100%"/></linearGradient></defs><g fill-rule="nonzero" fill="none"><path d="M60.7 40c-9.3 0-12.8 7.2-10.1 13.3-.4.2-1 1-.8 2.2.2 2.2 1.2 2.7 1.8 2.8.2 2.1 1.5 4.6 2.3 5l-.1 4.1C52 72 41.2 71 39.8 79c0 .3.3 1.1 1 1.1h35.8c1 0 1-.8 1-1.2-1.5-8-12.3-6.9-14-11.4l-.1-4.2c.7-.3 2-2.9 2.2-4.9.5 0 1.4-.6 1.8-2.9 0-1.2-.4-2-.8-2C68.5 51 68 42 61.6 42l-1-2h.1zm-12.4 5.3c-7 0-10 5.7-8 10.5-.2 0-.6.7-.5 1.7.2 1.8.9 2.2 1.3 2.2.2 1.7 1.2 3.6 1.8 4l-.1 2.4c-1 2.8-10.4 2.6-10.4 9.7 0 0 0 1 1 1h4.8c1.6-4.5 6-6.3 9.3-7.6 1.8-.7 3.6-1.4 4.2-2.3l.1-2.7a11 11 0 0 1-2.1-4.5c-.9-.6-1.8-1.8-2-4-.1-1.1.1-2 .5-2.7a12 12 0 0 1 .1-7.7zm24 0c-1 0-2.1 0-3.3.2.9 2.5 1 5.5.2 7.6.3.7.5 1.6.4 2.5v.2c-.4 2-1.1 3.3-2 4-.4 1.4-1 3.2-2 4.3V67c.6.9 2.5 1.6 4.3 2.3 3.3 1.3 7.7 3 9.3 7.6h4.7c1.1 0 1.1-1 1.1-1 0-8.1-9-6.2-10.4-10v-2.3c.5-.3 1.5-2.2 1.6-3.8.5 0 1.1-.5 1.4-2.3 0-.9-.3-1.5-.6-1.6 1.4-1.8 1.1-9-4-9l-.6-1.5-.1-.1zM61.4 34v.5c0 .3-.3.6-.7.7l-.1.4c0 .2-.3.4-.6.4h-1.2a.6.6 0 0 1-.6-.4l-.1-.4c-.4 0-.7-.4-.7-.7V34c0-.2.2-.4.5-.4h3c.3 0 .5.2.5.4zm1.6-6.8c0 1.1-.4 2.2-1.1 3a3 3 0 0 0-1 2c0 .3-.3.6-.7.6h-2.4a.7.7 0 0 1-.7-.6 4 4 0 0 0-1-2.1c-.7-.8-1-1.8-1.1-2.8a4 4 0 1 1 8-.1zm-4-3c0-.1-.2-.3-.4-.3a2.8 2.8 0 0 0-2.8 2.8c0 .2.2.4.4.4.3 0 .5-.2.5-.4 0-1.1.8-2 1.9-2 .2 0 .4-.2.4-.4v-.1zm-.4-2.8c.2 0 .4-.2.4-.4v-1.6c0-.2-.2-.4-.4-.4s-.4.2-.4.4V21c0 .2.2.4.4.4zm-5.2 5.3c0-.2-.2-.4-.4-.4h-1.6c-.2 0-.4.2-.4.4s.2.4.4.4H53c.2 0 .4-.2.4-.4zm13.2-.4H65c-.2 0-.4.2-.4.4s.2.4.4.4h1.6c.2 0 .4-.2.4-.4s-.2-.4-.4-.4zm-11.7 5l-1.3 1.3c-.3.3-.3.6 0 .8.2.2.5.2.7 0l1.3-1.3c.3-.2.3-.6 0-.8a.5.5 0 0 0-.7 0zm8.6-7.4l.4-.2 1.3-1.3c.3-.3.3-.6 0-.8a.5.5 0 0 0-.7 0l-1.3 1.3c-.3.2-.3.6 0 .8l.3.2zm-8.6-.2c.2.2.5.2.7 0 .3-.2.3-.6 0-.8l-1.3-1.3a.5.5 0 0 0-.7 0c-.3.2-.3.5 0 .8l1.3 1.3zm9 7.6a.5.5 0 0 0-.7 0c-.3.2-.3.6 0 .8l1.3 1.3c.2.2.5.2.7 0 .3-.2.3-.5 0-.8L64 31.3h-.1zM48.5 41.7v.3c0 .3-.2.4-.4.5l-.1.3-.4.2H47c-.2 0-.3 0-.4-.2v-.3c-.3 0-.5-.2-.5-.5v-.3c0-.1.1-.3.3-.3h1.9c.2 0 .3.2.3.3h-.1zm1-4.4c0 .7-.3 1.4-.7 1.9-.3.4-.5.8-.6 1.3 0 .2-.2.4-.4.4h-1.6a.4.4 0 0 1-.4-.4c0-.5-.3-1-.6-1.3a3 3 0 0 1-.7-1.9c0-1.5 1-2.7 2.5-2.7 1.4 0 2.5 1.2 2.5 2.7zM47 35.4c0-.1-.1-.3-.3-.3-1 0-1.7.9-1.7 1.9 0 .1.1.2.3.2.1 0 .2 0 .2-.2 0-.7.6-1.3 1.2-1.3.2 0 .3-.1.3-.3zm-.3-1.8c.2 0 .3-.2.3-.3v-1c0-.2-.1-.3-.3-.3 0 0-.2.1-.2.3v1c0 .1.1.3.3.3h-.1zM43.5 37c0-.2-.1-.3-.3-.3h-1s-.2.1-.2.3c0 .1.1.2.3.2h1s.2 0 .2-.2zm8.2-.3h-1s-.2.1-.2.3c0 .1.1.2.3.2h1s.2 0 .2-.2-.1-.3-.3-.3zM44.4 40l-.8.8v.5a.3.3 0 0 0 .5 0l.8-.8V40a.3.3 0 0 0-.5 0zm5.4-4.9h.3l.8-1c.1 0 .1-.3 0-.4a.3.3 0 0 0-.5 0l-.8.8v.5l.2.1zm-5.4 0a.3.3 0 0 0 .5 0v-.6l-.8-.8a.3.3 0 0 0-.5 0v.5l.8.8v.1zm5.7 4.9a.3.3 0 0 0-.5 0v.5l.8.8a.3.3 0 0 0 .5 0v-.5l-.8-.8zm22.4 1.7v.3c0 .3-.2.4-.4.5l-.1.3-.4.2H71c-.2 0-.3 0-.4-.2v-.3c-.3 0-.5-.2-.5-.5v-.3c0-.1.1-.3.3-.3h1.9c.2 0 .3.2.3.3h-.1zm1-4.4c0 .7-.3 1.4-.7 1.9-.3.4-.5.8-.6 1.3 0 .2-.2.4-.4.4h-1.6a.4.4 0 0 1-.4-.4c0-.5-.3-1-.6-1.3a3 3 0 0 1-.7-1.9c0-1.5 1-2.7 2.5-2.7 1.4 0 2.5 1.2 2.5 2.7zM71 35.4c0-.1-.1-.3-.3-.3-1 0-1.7.9-1.7 1.9 0 .1.1.2.3.2.1 0 .2 0 .2-.2 0-.7.6-1.3 1.2-1.3.2 0 .3-.1.3-.3zm-.3-1.8c.2 0 .3-.2.3-.3v-1c0-.2-.1-.3-.3-.3 0 0-.2.1-.2.3v1c0 .1.1.3.3.3h-.1zM67.5 37c0-.2-.1-.3-.3-.3h-1s-.2.1-.2.3c0 .1.1.2.3.2h1s.2 0 .2-.2zm8.2-.3h-1s-.2.1-.2.3c0 .1.1.2.3.2h1s.2 0 .2-.2-.1-.3-.3-.3zM68.4 40l-.8.8v.5a.3.3 0 0 0 .5 0l.8-.8V40a.3.3 0 0 0-.5 0zm5.4-4.9h.3l.8-1c.1 0 .1-.3 0-.4a.3.3 0 0 0-.5 0l-.8.8v.5l.2.1zm-5.4 0a.3.3 0 0 0 .5 0v-.6l-.8-.8a.3.3 0 0 0-.5 0v.5l.8.8v.1zm5.7 4.9a.3.3 0 0 0-.5 0v.5l.8.8a.3.3 0 0 0 .5 0v-.5l-.8-.8z" fill="#EAEAEA"/><path d="M101.7 66.3c1.1 2 1.2 5 .1 7.2l14.3-23.7a8.2 8.2 0 0 0 0-7.7L93 3.8A8.9 8.9 0 0 0 86.3 0h-20c-2.5 0-3.5 1.7-2.2 3.8l14.3 23.9.3.3 23 38.3z" fill="url(#a)"/><path d="M66.2 92h20c2.5 0 5.6-1.8 6.9-3.9l8.7-14.6c1-2.1 1-5.2-.1-7.2L87 42.1a8.3 8.3 0 0 1 0 7.7L72.8 73.5c0 .2 0 .3-.2.5L64 88.5c-.9 2 0 3.5 2.3 3.5h-.1z" fill="url(#b)"/><path d="M101.7 66.3L87 42.1a8.3 8.3 0 0 1 0 7.7l-5.2 8.6 20 15.1c1-2.1 1-5.2-.2-7.2h.1z" fill="url(#c)"/><path d="M15.4 25.7a8.1 8.1 0 0 1-.2-7.3L1 42.1a8.2 8.2 0 0 0 0 7.7l23 38.3c1.5 2.3 4 3.7 6.7 3.9h20c2.6 0 3.5-1.8 2.3-3.9L38.6 64.3l-.2-.3-23-38.3z" fill="url(#d)"/><path d="M50.8 0h-20A8.8 8.8 0 0 0 24 3.8l-8.8 14.6c-1 2.2-1 5.3.2 7.3L30 49.8a8.2 8.2 0 0 1 0-7.7l14.2-23.6c0-.2 0-.4.2-.5L53 3.4C54 1.5 53 0 50.7 0h.1z" fill="url(#e)"/><path d="M15.4 25.7L30 49.8a8.2 8.2 0 0 1 0-7.7l5.1-8.5-20-15.2c-1 2.2-1 5.3.3 7.3z" fill="url(#f)"/></g></svg>