<svg width="125" height="100" xmlns="http://www.w3.org/2000/svg"><defs><filter x="-5%" y="-6.5%" width="110.1%" height="113%" filterUnits="objectBoundingBox" id="a"><feOffset in="SourceAlpha" result="shadowOffsetOuter1"/><feGaussianBlur stdDeviation="2" in="shadowOffsetOuter1" result="shadowBlurOuter1"/><feColorMatrix values="0 0 0 0 0 0 0 0 0 0 0 0 0 0 0 0 0 0 0.5 0" in="shadowBlurOuter1" result="shadowMatrixOuter1"/><feMerge><feMergeNode in="shadowMatrixOuter1"/><feMergeNode in="SourceGraphic"/></feMerge></filter><radialGradient cx="40.7%" cy="-7.2%" fx="40.7%" fy="-7.2%" r="153.1%" gradientTransform="matrix(1 0 0 .72776 0 0)" id="b"><stop stop-color="#0DA960" offset="0%"/><stop stop-color="#03914B" offset="100%"/></radialGradient><radialGradient cx="62.7%" cy="7.8%" fx="62.7%" fy="7.8%" r="155.8%" gradientTransform="matrix(1 0 0 .78286 0 0)" id="c"><stop stop-color="#FFCD4D" offset="0%"/><stop stop-color="#F6C338" offset="100%"/></radialGradient><linearGradient x1="122.5%" y1="50%" x2="-2.7%" y2="50%" id="d"><stop stop-color="#231F20" stop-opacity=".2" offset="0%"/><stop stop-color="#F1F2F2" stop-opacity=".3" offset="100%"/></linearGradient><radialGradient cx="59.3%" cy="107.2%" fx="59.3%" fy="107.2%" r="153.1%" gradientTransform="matrix(-1 0 0 -.72789 1.2 1.9)" id="e"><stop stop-color="#4387FD" offset="0%"/><stop stop-color="#4683EA" offset="100%"/></radialGradient><radialGradient cx="37.3%" cy="92.2%" fx="37.3%" fy="92.2%" r="155.8%" gradientTransform="matrix(-1 0 0 -.78284 .7 1.6)" id="f"><stop stop-color="#E04A3F" offset="0%"/><stop stop-color="#CD372D" offset="100%"/></radialGradient><linearGradient x1="-22.5%" y1="50%" x2="102.7%" y2="50%" id="g"><stop stop-color="#231F20" stop-opacity=".2" offset="0%"/><stop stop-color="#F1F2F2" stop-opacity=".3" offset="100%"/></linearGradient></defs><g fill-rule="nonzero" fill="none"><path d="M73.2 52.8L69 47.4a9 9 0 0 0 2.5-5.7H78v.7a3.2 3.2 0 1 0 1.3 0v-1.3c0-.4-.3-.7-.6-.7h-7.2a9 9 0 0 0-1.9-4.9l1-.9h7.6a2 2 0 1 0 0-1.3h-8c-.1 0-.3 0-.4.2l-1 1a9 9 0 0 0-15.4 6H48l-2.2-4.8a2 2 0 1 0-1.3.1l2.5 5.5c0 .3.3.4.5.4h6a9 9 0 0 0 2.4 5.7l-5.5 5.4a6.5 6.5 0 1 0-1.6 12.9V69c0 .3.3.6.7.6h6a2 2 0 1 0 0-1.3H50v-2.6A6.5 6.5 0 0 0 52 53.2l5-5a9 9 0 0 0 11 0l3.7 4.7a9 9 0 1 0 1.6-.1zm7.4-7.2a2 2 0 1 1-3.9 0 2 2 0 0 1 4 0zM80 33.3a.6.6 0 1 1 0 1.3.6.6 0 0 1 0-1.3zm-35 1.3a.6.6 0 1 1 0-1.3.6.6 0 0 1 0 1.3zm12.3 33.7a.6.6 0 1 1 0 1.3.6.6 0 0 1 0-1.3zM52 63.7c-1.6 1-3.6 1-5.2 0v-1.2a2.6 2.6 0 0 1 5.2 0v1.2zm-3.9-6.4a1.3 1.3 0 1 1 2.6 0 1.3 1.3 0 0 1-2.6 0zm5.2-1.5a5.2 5.2 0 0 1 0 6.9v-.2c0-1.4-.8-2.7-2-3.4a2.6 2.6 0 1 0-3.8 0c-1.2.7-2 2-2 3.4v.2a5.2 5.2 0 0 1 7.8-6.9zM67 47.4c-2.7 2-6.4 2-9 0v-1.6c0-1.2.9-2.1 2-2.1h1.5l-1 2.3c0 .3 0 .5.2.7L62 48c.3.3.7.3 1 0l1.2-1.3c.2-.2.3-.4.2-.7l-1-2.3H65c1.1 0 2.1 1 2.1 2.1v1.6zm-4.4-10.5h-.1c-.3 1-2.1 1.4-3.2 1.5.1-2.1 1.2-3.2 3.2-3.2 1.8 0 2.8 1 3.1 2.7l-2.2-1.3a.6.6 0 0 0-.8.3zm.8 1.2l2.3 1.4c-.3 1.6-2.2 2.9-3.2 2.9a4 4 0 0 1-3.2-2.6c1.1-.1 3.1-.5 4-1.7zm-.4 8l-.5.6-.6-.6.6-1.3.5 1.3zm2.3-3.7c1-.8 1.6-2 1.7-3.3 0-4.3-2.5-5.2-4.5-5.2-2.1 0-4.6 1-4.6 5.2.1 1.3.7 2.5 1.7 3.3-1.7.2-3 1.7-3 3.4v.4a7.8 7.8 0 1 1 11.7 0v-.4c0-1.7-1.3-3.2-3-3.4zm12 25.7c-2.6 2-6.3 2-9 0v-1.5c0-1.2 1-2.2 2.1-2.2H72l-1 2.4c0 .2 0 .5.2.7l1.3 1.3c.2.2.6.2.9 0l1.3-1.3c.2-.2.2-.5.1-.7l-.9-2.4h1.4c1.2 0 2.2 1 2.2 2.2V68zM73.8 59l2.4 1.3c-.3 1.6-2.3 3-3.3 3a4 4 0 0 1-3.1-2.7c1.1 0 3.1-.4 4-1.6zm-4 .3c.1-2.2 1.1-3.2 3.1-3.2 1.9 0 2.9.9 3.2 2.7l-2.2-1.3a.6.6 0 0 0-1 .3c-.2 1-2 1.4-3.2 1.5zm3.7 7.7l-.6.5-.5-.5.5-1.4.6 1.4zm5.3 0v-.3c0-1.8-1.3-3.2-3-3.4 1-.8 1.6-2 1.7-3.3 0-4.3-2.5-5.2-4.6-5.2-2 0-4.5.9-4.5 5.2 0 1.3.7 2.5 1.7 3.3-1.7.2-3 1.6-3 3.4v.4a7.8 7.8 0 1 1 11.7 0z" fill="#757575"/><g filter="url(#a)" transform="translate(3 4)"><path d="M102.7 66.3c1.1 2 1.2 5 .1 7.2l14.3-23.7a8.2 8.2 0 0 0 0-7.7L94 3.8A8.9 8.9 0 0 0 87.3 0h-20c-2.5 0-3.5 1.7-2.2 3.8l14.3 23.9.3.3 23 38.3z" fill="url(#b)"/><path d="M67.2 92h20c2.5 0 5.6-1.8 6.9-3.9l8.7-14.6c1-2.1 1-5.2-.1-7.2L88 42.1a8.3 8.3 0 0 1 0 7.7L73.8 73.5c0 .2 0 .3-.2.5L65 88.5c-.9 2 0 3.5 2.3 3.5z" fill="url(#c)"/><path d="M102.7 66.3L88 42.1a8.3 8.3 0 0 1 0 7.7l-5.2 8.6 20 15.1c1-2.1 1-5.2-.2-7.2z" fill="url(#d)"/><path d="M16.4 25.7c-1.2-2-1.3-5.1-.2-7.3L2 42.1a8.2 8.2 0 0 0 0 7.7l23 38.3a8.8 8.8 0 0 0 6.7 3.9h20c2.6 0 3.5-1.8 2.3-3.9L39.6 64.3l-.2-.3-23-38.3z" fill="url(#e)"/><path d="M51.8 0h-20A8.8 8.8 0 0 0 25 3.8l-8.8 14.6c-1 2.2-1 5.3.2 7.3L31 49.8a8.2 8.2 0 0 1 0-7.7l14.2-23.6c0-.2 0-.4.2-.5L54 3.4c1-1.9 0-3.4-2.3-3.4z" fill="url(#f)"/><path d="M16.4 25.7L31 49.8a8.2 8.2 0 0 1 0-7.7l5.1-8.5-20-15.2c-1 2.2-1 5.3.3 7.3z" fill="url(#g)"/></g></g></svg>