<?xml version="1.0" encoding="UTF-8"?>
<svg width="125px" height="100px" viewBox="0 0 125 100" version="1.1" xmlns="http://www.w3.org/2000/svg" xmlns:xlink="http://www.w3.org/1999/xlink">
    <!-- Generator: Sketch 50 (54983) - http://www.bohemiancoding.com/sketch -->
    <title>google-developers</title>
    <desc>Created with Sketch.</desc>
    <defs>
        <filter x="-5.0%" y="-6.5%" width="110.1%" height="113.0%" filterUnits="objectBoundingBox" id="filter-1">
            <feOffset dx="0" dy="0" in="SourceAlpha" result="shadowOffsetOuter1"></feOffset>
            <feGaussianBlur stdDeviation="2" in="shadowOffsetOuter1" result="shadowBlurOuter1"></feGaussianBlur>
            <feColorMatrix values="0 0 0 0 0   0 0 0 0 0   0 0 0 0 0  0 0 0 0.5 0" type="matrix" in="shadowBlurOuter1" result="shadowMatrixOuter1"></feColorMatrix>
            <feMerge>
                <feMergeNode in="shadowMatrixOuter1"></feMergeNode>
                <feMergeNode in="SourceGraphic"></feMergeNode>
            </feMerge>
        </filter>
        <radialGradient cx="40.6901776%" cy="-7.23145554%" fx="40.6901776%" fy="-7.23145554%" r="153.119278%" gradientTransform="translate(0.406902,-0.072315),scale(1.000000,0.727760),translate(-0.406902,0.072315)" id="radialGradient-2">
            <stop stop-color="#0DA960" offset="0%"></stop>
            <stop stop-color="#03914B" offset="100%"></stop>
        </radialGradient>
        <radialGradient cx="62.683417%" cy="7.8270817%" fx="62.683417%" fy="7.8270817%" r="155.79797%" gradientTransform="translate(0.626834,0.078271),scale(1.000000,0.782860),translate(-0.626834,-0.078271)" id="radialGradient-3">
            <stop stop-color="#FFCD4D" offset="0%"></stop>
            <stop stop-color="#F6C338" offset="100%"></stop>
        </radialGradient>
        <linearGradient x1="122.528115%" y1="49.9968139%" x2="-2.70101087%" y2="49.9968139%" id="linearGradient-4">
            <stop stop-color="#231F20" stop-opacity="0.2" offset="0%"></stop>
            <stop stop-color="#F1F2F2" stop-opacity="0.25" offset="100%"></stop>
        </linearGradient>
        <radialGradient cx="59.3115934%" cy="107.232717%" fx="59.3115934%" fy="107.232717%" r="153.09382%" gradientTransform="translate(0.593116,1.072327),scale(1.000000,0.727889),rotate(180.000000),translate(-0.593116,-1.072327)" id="radialGradient-5">
            <stop stop-color="#4387FD" offset="0%"></stop>
            <stop stop-color="#4683EA" offset="100%"></stop>
        </radialGradient>
        <radialGradient cx="37.3099621%" cy="92.1753963%" fx="37.3099621%" fy="92.1753963%" r="155.790264%" gradientTransform="translate(0.373100,0.921754),scale(1.000000,0.782839),rotate(180.000000),translate(-0.373100,-0.921754)" id="radialGradient-6">
            <stop stop-color="#E04A3F" offset="0%"></stop>
            <stop stop-color="#CD372D" offset="100%"></stop>
        </radialGradient>
        <linearGradient x1="-22.5372006%" y1="50%" x2="102.695731%" y2="50%" id="linearGradient-7">
            <stop stop-color="#231F20" stop-opacity="0.2" offset="0%"></stop>
            <stop stop-color="#F1F2F2" stop-opacity="0.25" offset="100%"></stop>
        </linearGradient>
    </defs>
    <g id="Page-1" stroke="none" stroke-width="1" fill="none" fill-rule="evenodd">
        <g id="Artboard" transform="translate(-57.000000, -246.000000)" fill-rule="nonzero">
            <g id="google-developers" filter="url(#filter-1)" transform="translate(60.000000, 250.000000)">
                <path d="M102.652,66.299 C103.845,68.273 103.871,71.384 102.841,73.526 L117.063,49.838 C118.334,47.716 118.334,44.255 117.063,42.143 L94.078,3.848 C92.802,1.738 89.741,0 87.273,0 L67.238,0 C64.774,0 63.793,1.737 65.063,3.849 L79.374,27.673 C79.461,27.793 79.584,27.902 79.659,28.013 L102.652,66.299 Z" id="Shape" fill="url(#radialGradient-2)"></path>
                <path d="M67.238,91.964 L87.273,91.964 C89.742,91.964 92.801,90.24 94.079,88.114 L102.844,73.523 C103.872,71.382 103.848,68.271 102.655,66.296 L88.065,42.137 C89.332,44.249 89.332,47.71 88.065,49.832 L73.835,73.506 C73.761,73.665 73.727,73.85 73.647,73.997 L64.914,88.535 C64.02,90.448 64.94,91.964 67.238,91.964 Z" id="Shape" fill="url(#radialGradient-3)"></path>
                <path d="M102.652,66.299 L88.062,42.14 C89.329,44.252 89.329,47.713 88.062,49.835 L82.923,58.397 L102.84,73.526 C103.871,71.384 103.845,68.272 102.652,66.299 Z" id="Shape" fill="url(#linearGradient-4)"></path>
                <path d="M16.365,25.665 C15.184,23.689 15.145,20.577 16.183,18.437 L1.952,42.13 C0.681,44.252 0.681,47.713 1.952,49.828 L24.952,88.114 C26.221,90.227 29.284,91.964 31.743,91.964 L51.778,91.964 C54.251,91.964 55.233,90.229 53.962,88.114 L39.645,64.292 C39.565,64.169 39.435,64.063 39.364,63.95 L16.365,25.665 Z" id="Shape" fill="url(#radialGradient-5)"></path>
                <path d="M51.779,0 L31.744,0 C29.285,0 26.222,1.727 24.953,3.849 L16.183,18.439 C15.145,20.579 15.184,23.691 16.365,25.667 L30.964,49.83 C29.693,47.715 29.693,44.253 30.964,42.132 L45.187,18.458 C45.256,18.3 45.292,18.118 45.385,17.966 L54.114,3.43 C55.006,1.518 54.077,0 51.779,0 Z" id="Shape" fill="url(#radialGradient-6)"></path>
                <path d="M16.365,25.665 L30.964,49.828 C29.693,47.713 29.693,44.251 30.964,42.13 L36.103,33.572 L16.184,18.438 C15.146,20.577 15.185,23.69 16.365,25.665 Z" id="Shape" fill="url(#linearGradient-7)"></path>
            </g>
        </g>
    </g>
</svg>