<svg width="125" height="100" xmlns="http://www.w3.org/2000/svg"><defs><filter x="-5%" y="-6.5%" width="110.1%" height="113%" filterUnits="objectBoundingBox" id="a"><feOffset in="SourceAlpha" result="shadowOffsetOuter1"/><feGaussianBlur stdDeviation="2" in="shadowOffsetOuter1" result="shadowBlurOuter1"/><feColorMatrix values="0 0 0 0 0 0 0 0 0 0 0 0 0 0 0 0 0 0 0.5 0" in="shadowBlurOuter1" result="shadowMatrixOuter1"/><feMerge><feMergeNode in="shadowMatrixOuter1"/><feMergeNode in="SourceGraphic"/></feMerge></filter><radialGradient cx="40.7%" cy="-7.2%" fx="40.7%" fy="-7.2%" r="153.1%" gradientTransform="matrix(1 0 0 .72776 0 0)" id="b"><stop stop-color="#0DA960" offset="0%"/><stop stop-color="#03914B" offset="100%"/></radialGradient><radialGradient cx="62.7%" cy="7.8%" fx="62.7%" fy="7.8%" r="155.8%" gradientTransform="matrix(1 0 0 .78286 0 0)" id="c"><stop stop-color="#FFCD4D" offset="0%"/><stop stop-color="#F6C338" offset="100%"/></radialGradient><linearGradient x1="122.5%" y1="50%" x2="-2.7%" y2="50%" id="d"><stop stop-color="#231F20" stop-opacity=".2" offset="0%"/><stop stop-color="#F1F2F2" stop-opacity=".3" offset="100%"/></linearGradient><radialGradient cx="59.3%" cy="107.2%" fx="59.3%" fy="107.2%" r="153.1%" gradientTransform="matrix(-1 0 0 -.72789 1.2 1.9)" id="e"><stop stop-color="#4387FD" offset="0%"/><stop stop-color="#4683EA" offset="100%"/></radialGradient><radialGradient cx="37.3%" cy="92.2%" fx="37.3%" fy="92.2%" r="155.8%" gradientTransform="matrix(-1 0 0 -.78284 .7 1.6)" id="f"><stop stop-color="#E04A3F" offset="0%"/><stop stop-color="#CD372D" offset="100%"/></radialGradient><linearGradient x1="-22.5%" y1="50%" x2="102.7%" y2="50%" id="g"><stop stop-color="#231F20" stop-opacity=".2" offset="0%"/><stop stop-color="#F1F2F2" stop-opacity=".3" offset="100%"/></linearGradient></defs><g fill-rule="nonzero" fill="none"><g fill="#757575"><path d="M55.2 56.4a7.5 7.5 0 1 0-8.4 0 5.1 5.1 0 0 0-3.7 4.9v9c0 .3.3.7.7.7h14.3c.4 0 .8-.4.8-.8v-8.9c0-2.3-1.6-4.3-3.7-4.9zm-2.5 2.3l-1-1h1.9l-1 1zm-2.9-1l1.8 2-1.7 1.2-.8-3.2h.7zm5.5.3l.2.1-.2 2.7-1.5-1.1 1.5-1.7zM45 50.2a6 6 0 1 1 12 0 6 6 0 0 1-12 0zm-.4 11.1c0-1.8 1.3-3.3 3-3.6l1.2 4.7a.7.7 0 0 0 1.1.4l2-1.5v8.2h-3.7v-7.3a.7.7 0 0 0-1.5 0v7.3h-2.1v-8.2zm12.8 8.2h-4v-8.2l2 1.5a.7.7 0 0 0 1.2-.5l.3-2.8c.3.5.5 1.1.5 1.8v8.2z"/><path d="M55 63.4a.7.7 0 0 0-.6-.5c-.4 0-.6.2-.7.6-.1.3 0 .6.3.8.2.1.6.1.8 0a.7.7 0 0 0 .3-1zM50.7 48.8a.7.7 0 0 0-.7-.4c-.3 0-.5.1-.6.4-.2.3 0 .6.2.9.2.2.6.2.8 0a.7.7 0 0 0 .3-.9zM54.2 49.4c0 .3.4.4.7.4.3 0 .6-.2.7-.5 0-.3 0-.6-.3-.8a.7.7 0 0 0-.9 0c-.3.2-.4.6-.2.9zM73.2 42.2a.7.7 0 0 0 1.1-.6v-1.7h.8c1.2 0 2.3-1 2.3-2.3v-7.7c0-1.3-1-2.3-2.3-2.3h-7.7v-.3c0-1.3-1-2.3-2.3-2.3H51.6c-1.2 0-2.3 1-2.3 2.3V35c0 1.3 1 2.3 2.3 2.3h.8V39a.7.7 0 0 0 1.1.6l3.7-2.3h2v.3c0 1.3 1 2.3 2.3 2.3h8l3.7 2.3zM57 35.8l-.4.1-2.8 1.8v-1.2c0-.4-.3-.7-.7-.7h-1.5a.8.8 0 0 1-.8-.8v-7.7c0-.5.4-.8.8-.8h13.5c.5 0 .9.3.9.8v.3h-4.5c-1 0-1.8.6-2.1 1.5h-5.6a.7.7 0 0 0 0 1.5h5.5v1.2h-5.5a.7.7 0 0 0 0 1.5h5.5v2.5H57zm3.7 1.8v-7.7c0-.5.4-.8.8-.8h13.6c.4 0 .8.3.8.8v7.7c0 .4-.4.8-.8.8h-1.5c-.4 0-.8.3-.8.7v1.1l-2.7-1.7a.7.7 0 0 0-.4-.1h-8.2a.8.8 0 0 1-.8-.8z"/><path d="M63.7 33.2h9.2a.7.7 0 1 0 0-1.5h-9.2a.7.7 0 1 0 0 1.5zM73.7 35.2c0-.4-.4-.8-.8-.8h-9.2a.7.7 0 1 0 0 1.5h9.2c.4 0 .8-.3.8-.7zM79.3 56.4a7.5 7.5 0 1 0-8.4 0 5.1 5.1 0 0 0-3.7 4.9v9c0 .3.3.7.7.7h14.3c.4 0 .8-.4.8-.8v-8.9c0-2.3-1.6-4.3-3.7-4.9zm-1.6 1.3a3.1 3.1 0 0 1-5.2 0h5.2zm-8.6-7.5a6 6 0 1 1 12 0 6 6 0 0 1-12 0zm-.4 11.1c0-1.5 1-2.8 2.2-3.4a4.6 4.6 0 0 0 8.3 0c1.4.6 2.3 1.9 2.3 3.4v2.6h-2.6v-1.7a.7.7 0 1 0-1.5 0v7.3h-8.7v-8.2zm10.2 8.2v-4.1h2.6v4h-2.6z"/><path d="M75.4 49.4c0 .3.4.5.7.4.3 0 .6-.2.6-.5.1-.3 0-.6-.3-.8a.7.7 0 0 0-.9 0c-.2.3-.3.6-.1.9zM72 49l-.2-.3c-.3-.6-1.2-.4-1.3.3-.1.6.6 1 1 .7a.7.7 0 0 0 .4-.8zM75.2 51.6a.6.6 0 0 0-.8 0 1 1 0 0 1-1.5 0 .6.6 0 1 0-.8.9 2.2 2.2 0 0 0 3.1 0c.3-.3.3-.7 0-.9z"/></g><g filter="url(#a)" transform="translate(3 4)"><path d="M102.7 66.3c1.1 2 1.2 5 .1 7.2l14.3-23.7a8.2 8.2 0 0 0 0-7.7L94 3.8A8.9 8.9 0 0 0 87.3 0h-20c-2.5 0-3.5 1.7-2.2 3.8l14.3 23.9.3.3 23 38.3z" fill="url(#b)"/><path d="M67.2 92h20c2.5 0 5.6-1.8 6.9-3.9l8.7-14.6c1-2.1 1-5.2-.1-7.2L88 42.1a8.3 8.3 0 0 1 0 7.7L73.8 73.5c0 .2 0 .3-.2.5L65 88.5c-.9 2 0 3.5 2.3 3.5z" fill="url(#c)"/><path d="M102.7 66.3L88 42.1a8.3 8.3 0 0 1 0 7.7l-5.2 8.6 20 15.1c1-2.1 1-5.2-.2-7.2z" fill="url(#d)"/><path d="M16.4 25.7c-1.2-2-1.3-5.1-.2-7.3L2 42.1a8.2 8.2 0 0 0 0 7.7l23 38.3a8.8 8.8 0 0 0 6.7 3.9h20c2.6 0 3.5-1.8 2.3-3.9L39.6 64.3l-.2-.3-23-38.3z" fill="url(#e)"/><path d="M51.8 0h-20A8.8 8.8 0 0 0 25 3.8l-8.8 14.6c-1 2.2-1 5.3.2 7.3L31 49.8a8.2 8.2 0 0 1 0-7.7l14.2-23.6c0-.2 0-.4.2-.5L54 3.4c1-1.9 0-3.4-2.3-3.4z" fill="url(#f)"/><path d="M16.4 25.7L31 49.8a8.2 8.2 0 0 1 0-7.7l5.1-8.5-20-15.2c-1 2.2-1 5.3.3 7.3z" fill="url(#g)"/></g></g></svg>