<svg version="1" xmlns="http://www.w3.org/2000/svg" width="346.667" height="346.667" viewBox="0 0 260 260"><path d="M78.3 6.8c-4.6.2-8.3.5-8.3.8 0 .3 4.1 7.5 9 16.1 5 8.5 9 15.7 9 16.1 0 .3.6 1.3 1.4 2.1.7.9 2.7 4.1 4.3 7.1 1.6 3 4.2 7.4 5.6 9.7 1.5 2.4 2.7 4.5 2.7 4.9 0 .3.8 1.8 1.9 3.2 1 1.5 3.1 4.9 4.6 7.7 1.5 2.7 7.6 13.3 13.5 23.5s12.3 21.5 14.3 25.1l3.7 6.6-5.2 8.9c-10.7 18.6-12.1 21-15.1 26.4-1.6 3-3.3 5.9-3.7 6.5-.7.8-21.6 37-32.2 55.5-1.1 1.9-4.7 8-7.9 13.6-3.3 5.5-5.9 10.4-5.9 10.8 0 .3 19.2.5 42.7.4l42.6-.3 4.4-7.5c2.4-4.1 4.8-8.2 5.3-9 .6-.8 1.6-2.7 2.3-4.2.6-1.6 1.5-2.8 1.9-2.8.4 0 .8-.4.8-.9s7-13 15.6-27.8c16.5-28.1 18.4-31.5 21.8-37.5 1.2-2.1 4.7-8.3 7.8-13.8 10.7-18.6 10.7-18.5-9.3-53.2-8.3-14.5-16.3-28.4-17.8-30.9-1.4-2.5-9.3-16.3-17.6-30.7l-15-26.1L146 7c-5.2 0-20.7-.2-34.5-.3-13.7-.1-28.7-.1-33.2.1z"/></svg>