<svg width="118" height="92" xmlns="http://www.w3.org/2000/svg"><defs><radialGradient cx="40.7%" cy="-5.2%" fx="40.7%" fy="-5.2%" r="153.1%" gradientTransform="matrix(1 0 0 .7283 0 0)" id="a"><stop stop-color="#0DA960" offset="0%"/><stop stop-color="#03914B" offset="100%"/></radialGradient><radialGradient cx="62.7%" cy="6.1%" fx="62.7%" fy="6.1%" r="155.8%" gradientTransform="matrix(1 0 0 .7792 0 0)" id="b"><stop stop-color="#FFCD4D" offset="0%"/><stop stop-color="#F6C338" offset="100%"/></radialGradient><linearGradient x1="122.5%" y1="50%" x2="-2.7%" y2="50%" id="c"><stop stop-color="#231F20" stop-opacity=".2" offset="0%"/><stop stop-color="#F1F2F2" stop-opacity=".3" offset="100%"/></linearGradient><radialGradient cx="60.7%" cy="112%" fx="60.7%" fy="112%" r="153.1%" gradientTransform="matrix(-1 0 0 -.72669 1.2 2)" id="d"><stop stop-color="#4387FD" offset="0%"/><stop stop-color="#4683EA" offset="100%"/></radialGradient><radialGradient cx="32.7%" cy="87.8%" fx="32.7%" fy="87.8%" r="155.8%" gradientTransform="matrix(-1 0 0 -.7814 .7 1.6)" id="e"><stop stop-color="#E04A3F" offset="0%"/><stop stop-color="#CD372D" offset="100%"/></radialGradient><linearGradient x1="-22.5%" y1="50%" x2="102.7%" y2="50%" id="f"><stop stop-color="#231F20" stop-opacity=".2" offset="0%"/><stop stop-color="#F1F2F2" stop-opacity=".3" offset="100%"/></linearGradient></defs><g fill-rule="nonzero" fill="none"><path d="M101.7 66.3c1.1 2 1.2 5 .1 7.2l14.3-23.7a8.2 8.2 0 0 0 0-7.7L93 3.8A8.9 8.9 0 0 0 86.3 0h-20c-2.5 0-3.5 1.7-2.2 3.8l14.3 23.9.3.3 23 38.3z" fill="url(#a)"/><path d="M66.2 92h20c2.5 0 5.6-1.8 6.9-3.9l8.7-14.6c1-2.1 1-5.2-.1-7.2L87 42.1a8.3 8.3 0 0 1 0 7.7L72.8 73.5c0 .2 0 .3-.2.5L64 88.5c-.9 2 0 3.5 2.3 3.5h-.1z" fill="url(#b)"/><path d="M101.7 66.3L87 42.1a8.3 8.3 0 0 1 0 7.7l-5.2 8.6 20 15.1c1-2.1 1-5.2-.2-7.2h.1z" fill="url(#c)"/><path d="M15.4 25.7a8.1 8.1 0 0 1-.2-7.3L1 42.1a8.2 8.2 0 0 0 0 7.7l23 38.3c1.5 2.3 4 3.7 6.7 3.9h20c2.6 0 3.5-1.8 2.3-3.9L38.6 64.3l-.2-.3-23-38.3z" fill="url(#d)"/><path d="M50.8 0h-20A8.8 8.8 0 0 0 24 3.8l-8.8 14.6c-1 2.2-1 5.3.2 7.3L30 49.8a8.2 8.2 0 0 1 0-7.7l14.2-23.6c0-.2 0-.4.2-.5L53 3.4C54 1.5 53 0 50.7 0h.1z" fill="url(#e)"/><path d="M15.4 25.7L30 49.8a8.2 8.2 0 0 1 0-7.7l5.1-8.5-20-15.2c-1 2.2-1 5.3.3 7.3z" fill="url(#f)"/><g fill="#757575"><path d="M55.3 24.1c-2.3.2-4.7 1-6.7 2C43 28.7 40 34.2 40 41.6c0 2.4.3 4.2 1 6.3.8 2.3 1.7 4 4.2 7.6l1.1 1.9c.4 1.1.4 4 0 6.3V65A486 486 0 0 0 63 71l.3-3.1a5 5 0 0 1 1.2-3.4 3 3 0 0 1 1.8-1.1 14 14 0 0 1 3.9-.5c3-.1 4-.4 4.7-1 .4-.3.5-.6.5-1.6s.2-1.5.8-2.4c.5-.9.6-1.3.2-1.8l-.3-.2h.2c.3-.2.5-.5.4-.8l-.3-.8c-.5-1.4-.2-2.3 1-2.6 1-.3 1.5-.7 1.5-1.6 0-.6-.3-1.1-1.8-3.5l-1.7-3A3 3 0 0 1 75 42l.1-1.6a7 7 0 0 0 .1-3.2c-1-5-4.2-9.2-8.9-11.3a22 22 0 0 0-11-1.8zm5.9 2.8c3.5.5 6 1.7 8 3.7 1.9 1.8 3 3.9 3.5 6.6.4 2.1.3 3.6-.7 5.5a15.2 15.2 0 0 1-8.3 7.1c-3.9 1.5-9.4 2-13 1.1a10 10 0 0 1-7.8-7.7c-1-5.3 1.1-10.7 5.4-13.9a14 14 0 0 1 5.5-2.3c2-.3 5.5-.3 7.4 0v-.1z"/><path d="M64 31v.3c0 .2 0 .3-.5.4l-.7.2-.2-.1c-.2-.4-.5-.3-1.1.3l-.7.9v.5l.4.2.1.1-.1.7c0 .4 0 .5-.4.5l-.4.2c-.2.2.5 2 .8 2.1h.4l.3-.2.4.4.5.3c.1 0 0 .2 0 .4-.2.2-.2.3 0 .4.1.2 1.1.4 1.7.4.5 0 .7-.1.6-.5 0-.2 0-.3.6-.5l.6-.2.2.3.4.2c.3 0 1.5-1.4 1.5-1.8l-.4-.3c-.3-.1-.3-.1-.2-.4V35c0-.3.1-.3.4-.3.5 0 .6-.2.4-.9-.2-.6-.6-1.4-.8-1.5l-.4.1-.2.2-.3-.2-.4-.4c-.3-.2-.3-.2-.2-.5V31c-.5-.3-2.3-.5-2.4-.2l.1.2zm1.1 2a2 2 0 0 1 1.5 2c0 1-1 1.9-2 1.9a2 2 0 0 1-2.1-2c0-.9.6-1.7 1.4-2H65l.1.1zm-13.4-1.1H51c-1.2.3-2.8 1.1-2.9 1.5l.2.6.2.3-.5.6a7 7 0 0 0-.8 1c-.1.2-.2.2-.4.2-.5-.2-.6-.3-.8-.2-.4.2-1 2-1 3.4 0 .9.2 1 .8 1h.4l.3.7c0 .4.3.9.4 1.1l.2.4-.4.3c-.5.3-.4.6.1 1.2.6.7 1 1 2 1.6.7.5 1 .5 1.3 0l.2-.4.4.1 1.2.2h.8v.5c.1.5.2.7.7.7.4 0 1.7-.4 2.5-.8 1.2-.5 1.4-.8.9-1.4l-.2-.3.5-.5.8-1 .3-.4.3.2c.6.3.8.1 1.2-1 .4-1.3.5-3 .1-3.2H59l-.2-.6-.4-1.2c-.2-.4-.2-.6-.1-.6l.4-.3c.2-.2.2-.3.2-.5-.2-.6-1.6-1.8-2.6-2.4-.7-.3-1-.3-1.2.3-.1.3-.2.4-.3.3l-2-.4c-.2 0-.2 0-.2-.4 0-.2-.1-.4-.3-.5l-.3-.2h-.2l-.1.1zm2.1 4c1.9.8 2.8 3 2 4.7a3.5 3.5 0 0 1-6.5-.1 4 4 0 0 1 0-2.7 4 4 0 0 1 2.3-2c.5 0 1.7 0 2.2.2v-.1z"/><path d="M51.8 37.5c-1.8.7-1.5 3.3.4 3.7 1.3.3 2.6-1 2.3-2.3a2 2 0 0 0-2.7-1.4zm11.6 3.2c-.2.1-.2.2-.2.4s0 .3-.2.3l-.5.2c-.2.1-.3.1-.4 0l-.3-.3a3 3 0 0 0-1 1c-.4.4-.4.7 0 .8.1.1.2.2.1.3v.6c0 .3 0 .3-.3.4-.3 0-.3 0-.3.4 0 .5.4 1.4.6 1.5h.3c.2-.2.3-.2.7.1.4.3.4.4.4.5-.2.4-.1.6.4.7.6.2 1.5.2 1.6 0v-.3l.1-.2.5-.2c.4-.2.4-.2.6 0 .1.3.2.3.3.2.5-.2 1.3-1.3 1.2-1.6l-.3-.2c-.2 0-.2 0-.2-.2l.1-.6c0-.3.1-.3.4-.4.3 0 .3 0 .3-.4l-.3-1c-.3-.6-.5-.7-.8-.4-.2.1-.2.1-.5-.2l-.5-.4v-.3c.2-.3.1-.4-.4-.6-.6-.2-1.2-.2-1.4 0v-.1zm1 2c.7.2 1.2 1 1.2 1.5 0 .4-.3.9-.5 1.2-.8 1-2.4.7-3-.4-.6-1.5.9-3 2.4-2.4l-.1.1z"/></g></g></svg>